<?xml version="1.0" encoding="UTF-8"?>
<svg width="20px" height="16px" viewBox="0 0 20 16" version="1.1" xmlns="http://www.w3.org/2000/svg" xmlns:xlink="http://www.w3.org/1999/xlink">
    <title>case</title>
    <g id="Page-1" stroke="none" stroke-width="1" fill="none" fill-rule="evenodd">
        <g id="case" fill="#666666" fill-rule="nonzero">
            <path d="M13.75,16 L2,16 C1.45,16 0.979166667,15.8041667 0.5875,15.4125 C0.195833333,15.0208333 0,14.55 0,14 L0,2 C0,1.45 0.195833333,0.979166667 0.5875,0.5875 C0.979166667,0.195833333 1.45,0 2,0 L18,0 C18.55,0 19.0208333,0.195833333 19.4125,0.5875 C19.8041667,0.979166667 20,1.45 20,2 L20,14 C20,14.55 19.8041667,15.0208333 19.4125,15.4125 C19.0208333,15.8041667 18.55,16 18,16 L16.6,16 L11.9,11.3 C11.55,11.5333333 11.1708333,11.7083333 10.7625,11.825 C10.3541667,11.9416667 9.93333333,12 9.5,12 C8.25,12 7.1875,11.5625 6.3125,10.6875 C5.4375,9.8125 5,8.75 5,7.5 C5,6.25 5.4375,5.1875 6.3125,4.3125 C7.1875,3.4375 8.25,3 9.5,3 C10.75,3 11.8125,3.4375 12.6875,4.3125 C13.5625,5.1875 14,6.25 14,7.5 C14,7.95 13.9416667,8.375 13.825,8.775 C13.7083333,9.175 13.5333333,9.55 13.3,9.9 L17.4,14 L18,14 L18,2 L2,2 L2,14 L11.75,14 L13.75,16 Z M9.5,10 C10.2,10 10.7916667,9.75833333 11.275,9.275 C11.7583333,8.79166667 12,8.2 12,7.5 C12,6.8 11.7583333,6.20833333 11.275,5.725 C10.7916667,5.24166667 10.2,5 9.5,5 C8.8,5 8.20833333,5.24166667 7.725,5.725 C7.24166667,6.20833333 7,6.8 7,7.5 C7,8.2 7.24166667,8.79166667 7.725,9.275 C8.20833333,9.75833333 8.8,10 9.5,10 Z M2.0375,14 L2.0375,2 L2.0375,14 Z" id="Shape"></path>
        </g>
    </g>
</svg>