<?xml version="1.0" encoding="UTF-8"?>
<svg width="52px" height="20px" viewBox="0 0 52 20" version="1.1" xmlns="http://www.w3.org/2000/svg" xmlns:xlink="http://www.w3.org/1999/xlink">
    <title>About me</title>
    <g id="Page-1" stroke="none" stroke-width="1" fill="none" fill-rule="evenodd">
        <g id="About-me" fill-rule="nonzero">
            <rect id="Rectangle" fill="#EAEAEA" x="0" y="0" width="52" height="20"></rect>
            <path d="M9.80273438,12.7919922 L5.39501953,12.7919922 L4.72265625,15 L2.16601562,15 L6.05908203,3.09667969 L9.22167969,3.09667969 L13.1728516,15 L10.4833984,15 L9.80273438,12.7919922 Z M6.04248047,10.6669922 L9.15527344,10.6669922 L7.61132812,5.63671875 L7.578125,5.63671875 L6.04248047,10.6669922 Z" id="Shape" fill="#000000"></path>
            <path d="M22.7602539,10.559082 C22.7602539,11.2176107 22.6634115,11.8291016 22.4697266,12.3935547 C22.2760417,12.9580078 22.0048828,13.444987 21.65625,13.8544922 C21.3076172,14.2639974 20.8898112,14.5849609 20.402832,14.8173828 C19.9158529,15.0498047 19.379069,15.1660156 18.7924805,15.1660156 C18.5323893,15.1660156 18.2958171,15.1424967 18.0827637,15.095459 C17.8697103,15.0484212 17.6746419,14.9833984 17.4975586,14.9003906 C17.3204753,14.8173828 17.1572266,14.7191569 17.0078125,14.6057129 C16.8583984,14.4922689 16.722819,14.3691406 16.6010742,14.2363281 L16.6010742,15 L14.3100586,15 L14.3100586,3.09667969 L16.6010742,3.09667969 L16.6010742,6.87353516 C16.8500977,6.61344401 17.1572266,6.39208984 17.5224609,6.20947266 C17.8876953,6.02685547 18.3304036,5.93554688 18.8505859,5.93554688 C19.4371745,5.93554688 19.9698079,6.05314128 20.4484863,6.28833008 C20.9271647,6.52351888 21.3380534,6.84724935 21.6811523,7.25952148 C22.0242513,7.67179362 22.2898763,8.16015625 22.4780273,8.72460938 C22.6661784,9.2890625 22.7602539,9.90055339 22.7602539,10.559082 Z M16.534668,11.3808594 C16.534668,11.6188151 16.5775553,11.8387858 16.6633301,12.0407715 C16.7491048,12.2427572 16.8722331,12.418457 17.0327148,12.5678711 C17.1931966,12.7172852 17.385498,12.8334961 17.6096191,12.9165039 C17.8337402,12.9995117 18.0869141,13.0410156 18.3691406,13.0410156 C18.695638,13.0410156 18.9847819,12.9815267 19.2365723,12.8625488 C19.4883626,12.743571 19.7000326,12.5761719 19.871582,12.3603516 C20.0431315,12.1445312 20.1731771,11.8885905 20.2617188,11.5925293 C20.3502604,11.2964681 20.3945312,10.9713542 20.3945312,10.6171875 L20.3945312,10.5092773 C20.3945312,10.1551107 20.3502604,9.82861328 20.2617188,9.52978516 C20.1731771,9.23095703 20.0431315,8.97224935 19.871582,8.75366211 C19.7000326,8.53507487 19.4883626,8.36490885 19.2365723,8.24316406 C18.9847819,8.12141927 18.695638,8.06054688 18.3691406,8.06054688 C18.0869141,8.06054688 17.8337402,8.10205078 17.6096191,8.18505859 C17.385498,8.26806641 17.1931966,8.38427734 17.0327148,8.53369141 C16.8722331,8.68310547 16.7491048,8.8601888 16.6633301,9.06494141 C16.5775553,9.26969401 16.534668,9.49104818 16.534668,9.72900391 L16.534668,11.3808594 Z" id="Shape" fill="#000000"></path>
            <path d="M28.1972656,5.93554688 C28.8557943,5.93554688 29.4534505,6.05314128 29.9902344,6.28833008 C30.5270182,6.52351888 30.9863281,6.84863281 31.3681641,7.26367188 C31.75,7.67871094 32.0446777,8.16845703 32.2521973,8.73291016 C32.4597168,9.29736328 32.5634766,9.90608724 32.5634766,10.559082 C32.5634766,11.2176107 32.4583333,11.8277181 32.2480469,12.3894043 C32.0377604,12.9510905 31.7416992,13.4366862 31.3598633,13.8461914 C30.9780273,14.2556966 30.5187174,14.5780436 29.9819336,14.8132324 C29.4451497,15.0484212 28.8502604,15.1660156 28.1972656,15.1660156 C27.538737,15.1660156 26.9410807,15.0484212 26.4042969,14.8132324 C25.867513,14.5780436 25.4082031,14.2556966 25.0263672,13.8461914 C24.6445312,13.4366862 24.3484701,12.9510905 24.1381836,12.3894043 C23.9278971,11.8277181 23.8227539,11.2176107 23.8227539,10.559082 C23.8227539,9.90608724 23.9265137,9.29736328 24.1340332,8.73291016 C24.3415527,8.16845703 24.6362305,7.67871094 25.0180664,7.26367188 C25.3999023,6.84863281 25.8605957,6.52351888 26.4001465,6.28833008 C26.9396973,6.05314128 27.538737,5.93554688 28.1972656,5.93554688 Z M28.1972656,13.0410156 C28.523763,13.0410156 28.8129069,12.9801432 29.0646973,12.8583984 C29.3164876,12.7366536 29.5281576,12.5678711 29.699707,12.3520508 C29.8712565,12.1362305 30.0013021,11.8775228 30.0898438,11.5759277 C30.1783854,11.2743327 30.2226562,10.9436849 30.2226562,10.5839844 L30.2226562,10.5258789 C30.2226562,10.1661784 30.1783854,9.8355306 30.0898438,9.53393555 C30.0013021,9.23234049 29.8712565,8.97224935 29.699707,8.75366211 C29.5281576,8.53507487 29.3164876,8.36490885 29.0646973,8.24316406 C28.8129069,8.12141927 28.523763,8.06054688 28.1972656,8.06054688 C27.8707682,8.06054688 27.5816243,8.12141927 27.329834,8.24316406 C27.0780436,8.36490885 26.8663737,8.53507487 26.6948242,8.75366211 C26.5232747,8.97224935 26.3932292,9.23234049 26.3046875,9.53393555 C26.2161458,9.8355306 26.171875,10.1661784 26.171875,10.5258789 L26.171875,10.5839844 C26.171875,10.9436849 26.2161458,11.2743327 26.3046875,11.5759277 C26.3932292,11.8775228 26.5232747,12.1362305 26.6948242,12.3520508 C26.8663737,12.5678711 27.0780436,12.7366536 27.329834,12.8583984 C27.5816243,12.9801432 27.8707682,13.0410156 28.1972656,13.0410156 Z" id="Shape" fill="#000000"></path>
            <path d="M41.6445312,15 L39.3535156,15 L39.3535156,14.2363281 C39.226237,14.3580729 39.0878906,14.4756673 38.9384766,14.5891113 C38.7890625,14.7025553 38.6230469,14.8021647 38.4404297,14.8879395 C38.2578125,14.9737142 38.0544434,15.0415039 37.8303223,15.0913086 C37.6062012,15.1411133 37.3585612,15.1660156 37.0874023,15.1660156 C36.605957,15.1660156 36.1743164,15.0871582 35.7924805,14.9294434 C35.4106445,14.7717285 35.0882975,14.5559082 34.8254395,14.2819824 C34.5625814,14.0080566 34.3619792,13.6857096 34.2236328,13.3149414 C34.0852865,12.9441732 34.0161133,12.5429688 34.0161133,12.1113281 L34.0161133,6.10986328 L36.3071289,6.10986328 L36.3071289,11.2729492 C36.3071289,11.5883789 36.3417155,11.8567708 36.4108887,12.078125 C36.4800618,12.2994792 36.5769043,12.477946 36.701416,12.6135254 C36.8259277,12.7491048 36.9739583,12.8487142 37.1455078,12.9123535 C37.3170573,12.9759928 37.5024414,13.0078125 37.7016602,13.0078125 C37.934082,13.0078125 38.1512858,12.9663086 38.3532715,12.8833008 C38.5552572,12.800293 38.730957,12.6743978 38.8803711,12.5056152 C39.0297852,12.3368327 39.1459961,12.1251628 39.2290039,11.8706055 C39.3120117,11.6160482 39.3535156,11.3172201 39.3535156,10.9741211 L39.3535156,6.10986328 L41.6445312,6.10986328 L41.6445312,15 Z" id="Path" fill="#000000"></path>
            <path d="M46.8989258,12.3520508 C46.8989258,12.457194 46.9127604,12.5568034 46.9404297,12.6508789 C46.968099,12.7449544 47.0165202,12.8265788 47.0856934,12.895752 C47.1548665,12.9649251 47.2530924,13.0188802 47.3803711,13.0576172 C47.5076497,13.0963542 47.6708984,13.1157227 47.8701172,13.1157227 C47.953125,13.1157227 48.0472005,13.1115723 48.1523438,13.1032715 C48.257487,13.0949707 48.3626302,13.0852865 48.4677734,13.0742188 C48.5729167,13.063151 48.6711426,13.0493164 48.7624512,13.0327148 C48.8537598,13.0161133 48.9298503,13.0022786 48.9907227,12.9912109 L49.1982422,15.0166016 C48.9824219,15.0442708 48.7583008,15.0691732 48.5258789,15.0913086 C48.3266602,15.113444 48.105306,15.131429 47.8618164,15.1452637 C47.6183268,15.1590983 47.3720703,15.1660156 47.1230469,15.1660156 C46.3317057,15.1660156 45.714681,14.9861654 45.2719727,14.6264648 C44.8292643,14.2667643 44.6079102,13.6940104 44.6079102,12.9082031 L44.6079102,8.10205078 L43.0058594,8.10205078 L43.0058594,6.10986328 L44.6079102,6.10986328 L44.6079102,3.59472656 L46.8989258,2.98046875 L46.8989258,6.10986328 L49.2314453,6.10986328 L49.2314453,8.10205078 L46.8989258,8.10205078 L46.8989258,12.3520508 Z" id="Path" fill="#000000"></path>
        </g>
    </g>
</svg>