<?xml version="1.0" encoding="UTF-8"?>
<svg width="42px" height="43px" viewBox="0 0 42 43" version="1.1" xmlns="http://www.w3.org/2000/svg" xmlns:xlink="http://www.w3.org/1999/xlink">
    <title>dug logo</title>
    <g id="Page-1" stroke="none" stroke-width="1" fill="none" fill-rule="evenodd">
        <g id="Group" transform="translate(0.239692, 0.958000)" fill="#000000" fill-rule="nonzero">
            <g id="dug-logo">
                <path d="M14.0527998,26.5594379 L11.6011467,26.5594379 L11.6011467,25.0606481 L11.5654534,25.0606481 C10.9568579,26.4028479 9.84740466,26.8727824 8.80950255,26.8727824 C5.9821651,26.8727824 4.80099631,23.7408182 4.80099631,20.4747985 C4.80099631,16.3585544 6.66214724,14.3450901 8.75571586,14.3450901 C10.3663557,14.3450901 11.1180534,15.4413845 11.5116667,16.2019644 L11.5475245,16.2019644 L11.5475245,10.4974505 L14.0527998,10.4974505 L14.0527998,26.5594379 Z M9.43586249,24.3000681 C11.0285734,24.3000681 11.6547689,22.6446883 11.6547689,20.8774585 C11.6547689,18.9758442 11.2254623,17.0520243 9.50741359,17.0520243 C7.91470263,17.0520243 7.37782268,18.8194187 7.37782268,20.698334 C7.37782268,22.1078084 7.82522264,24.3000681 9.43586249,24.3000681 Z M24.7876025,26.5594379 L22.3897361,26.5594379 L22.3897361,24.8816881 L22.3538783,24.8816881 C21.7811406,26.156778 20.7790963,26.8727824 19.4548253,26.8727824 C17.57591,26.8727824 16.2157812,25.5302535 16.2157812,22.4880983 L16.2157812,14.6584346 L18.7210565,14.6584346 L18.7210565,22.0406984 C18.7210565,23.8750382 19.5801631,24.2329582 20.3496252,24.2329582 C21.1727095,24.2329582 22.2821627,23.6513382 22.2821627,21.5261884 L22.2821627,14.6584346 L24.7876025,14.6584346 L24.7876025,26.5594379 Z M35.7727518,14.6584346 L35.7727518,25.933078 C35.7727518,27.9911178 35.6475785,31.4137275 30.9589257,31.4137275 C28.9905303,31.4137275 26.9147261,30.3623376 26.8073172,27.8345278 L29.5272458,27.8345278 C29.6348192,28.4385178 29.8315436,29.0425077 31.2809879,29.0425077 C32.6231877,29.0425077 33.2674766,28.2370233 33.2674766,26.313368 L33.2674766,24.8816881 L33.2317833,24.8369481 C32.8200766,25.754118 32.1937167,26.6265479 30.6904857,26.6265479 C28.4000282,26.6265479 26.5924995,24.6356181 26.5924995,20.4747985 C26.5924995,16.3585544 28.4536504,14.3450901 30.5473835,14.3450901 C32.3190544,14.3450901 33.0347299,15.6427145 33.3390277,16.4256644 L33.3748854,16.4256644 L33.3748854,14.6584346 L35.7727518,14.6584346 Z M31.1558146,23.9868882 C32.8559344,23.9868882 33.2854055,22.1747539 33.2854055,20.5419085 C33.2854055,18.6179242 32.5338722,17.0520243 31.1378857,17.0520243 C30.2073924,17.0520243 29.1693258,17.9020843 29.1693258,20.6761285 C29.1693258,22.1972883 29.6705125,23.9868882 31.1558146,23.9868882 Z M0,21 C0,32.5794346 9.33141434,42 20.8013018,42 C32.2711892,42 41.6024391,32.5794346 41.6024391,21 C41.6024391,9.42056536 32.2711892,0 20.8013018,0 C9.33141434,0 0,9.42056536 0,21 Z M2.63176446,21 C2.63176446,10.8716545 10.7825035,2.63176446 20.8013018,2.63176446 C30.8201001,2.63176446 38.9706746,10.8716545 38.9706746,21 C38.9706746,31.1283455 30.8201001,39.3682355 20.8013018,39.3682355 C10.7825035,39.3682355 2.63176446,31.1283455 2.63176446,21 L2.63176446,21 Z" id="Fill-1"></path>
            </g>
        </g>
    </g>
</svg>