<?xml version="1.0" encoding="UTF-8"?>
<svg width="262px" height="24px" viewBox="0 0 262 24" version="1.1" xmlns="http://www.w3.org/2000/svg" xmlns:xlink="http://www.w3.org/1999/xlink">
    <title>Good looks like this</title>
    <g id="Page-1" stroke="none" stroke-width="1" fill="none" fill-rule="evenodd">
        <g id="Group" transform="translate(0.142578, 0.763672)" fill="#000000" fill-rule="nonzero">
            <g>
                <path d="M4.37988281,11.7919922 C4.37988281,12.6904297 4.4921875,13.5546875 4.71679688,14.3847656 C4.94140625,15.2148438 5.28320312,15.9472656 5.7421875,16.5820312 C6.20117188,17.2167969 6.78710938,17.7270508 7.5,18.112793 C8.21289062,18.4985352 9.0625,18.6914062 10.0488281,18.6914062 C10.9960938,18.6914062 11.784668,18.5400391 12.4145508,18.2373047 C13.0444336,17.9345703 13.5473633,17.5561523 13.9233398,17.1020508 C14.2993164,16.6479492 14.5629883,16.1572266 14.7143555,15.6298828 C14.8657227,15.1025391 14.9414063,14.6142578 14.9414063,14.1650391 L14.9414063,13.9599609 L9.56542969,13.9599609 L9.56542969,10.7226562 L19.0722656,10.7226562 L19.0722656,22.2363281 L15.3515625,22.2363281 L15.3515625,19.7753906 C15.0878906,20.1855469 14.7607422,20.559082 14.3701172,20.8959961 C13.9794922,21.2329102 13.5400391,21.5209961 13.0517578,21.7602539 C12.5634766,21.9995117 12.0288086,22.1875 11.4477539,22.3242188 C10.8666992,22.4609375 10.2490234,22.5292969 9.59472656,22.5292969 C8.06152344,22.5292969 6.69921875,22.2509766 5.5078125,21.6943359 C4.31640625,21.1376953 3.31298828,20.3710938 2.49755859,19.3945312 C1.68212891,18.4179688 1.06201172,17.2753906 0.637207031,15.9667969 C0.212402344,14.6582031 0,13.2470703 0,11.7333984 C0,10.2294922 0.236816406,8.82080078 0.710449219,7.50732422 C1.18408203,6.19384766 1.85791016,5.05126953 2.73193359,4.07958984 C3.60595703,3.10791016 4.66064453,2.34130859 5.89599609,1.77978516 C7.13134766,1.21826172 8.515625,0.9375 10.0488281,0.9375 C11.0449219,0.9375 11.9897461,1.05224609 12.8833008,1.28173828 C13.7768555,1.51123047 14.5922852,1.83837891 15.3295898,2.26318359 C16.0668945,2.68798828 16.71875,3.20068359 17.2851562,3.80126953 C17.8515625,4.40185547 18.3105469,5.06835938 18.6621094,5.80078125 L14.9414063,7.89550781 C14.7167969,7.44628906 14.453125,7.02880859 14.1503906,6.64306641 C13.8476562,6.25732422 13.4985352,5.92529297 13.1030273,5.64697266 C12.7075195,5.36865234 12.2558594,5.14892578 11.7480469,4.98779297 C11.2402344,4.82666016 10.6738281,4.74609375 10.0488281,4.74609375 C9.0625,4.74609375 8.21289062,4.93896484 7.5,5.32470703 C6.78710938,5.71044922 6.20117188,6.22070312 5.7421875,6.85546875 C5.28320312,7.49023438 4.94140625,8.22509766 4.71679688,9.06005859 C4.4921875,9.89501953 4.37988281,10.7568359 4.37988281,11.6455078 L4.37988281,11.7919922 Z" id="Path"></path>
                <path d="M29.2529297,6.24023438 C30.4150391,6.24023438 31.4697266,6.44775391 32.4169922,6.86279297 C33.3642578,7.27783203 34.1748047,7.8515625 34.8486328,8.58398438 C35.5224609,9.31640625 36.0424805,10.1806641 36.4086914,11.1767578 C36.7749023,12.1728516 36.9580078,13.2470703 36.9580078,14.3994141 C36.9580078,15.5615234 36.7724609,16.6381836 36.4013672,17.6293945 C36.0302734,18.6206055 35.5078125,19.4775391 34.8339844,20.2001953 C34.1601562,20.9228516 33.3496094,21.4916992 32.4023438,21.9067383 C31.4550781,22.3217773 30.4052734,22.5292969 29.2529297,22.5292969 C28.0908203,22.5292969 27.0361328,22.3217773 26.0888672,21.9067383 C25.1416016,21.4916992 24.3310547,20.9228516 23.6572266,20.2001953 C22.9833984,19.4775391 22.4609375,18.6206055 22.0898438,17.6293945 C21.71875,16.6381836 21.5332031,15.5615234 21.5332031,14.3994141 C21.5332031,13.2470703 21.7163086,12.1728516 22.0825195,11.1767578 C22.4487305,10.1806641 22.96875,9.31640625 23.6425781,8.58398438 C24.3164062,7.8515625 25.1293945,7.27783203 26.081543,6.86279297 C27.0336914,6.44775391 28.0908203,6.24023438 29.2529297,6.24023438 Z M29.2529297,18.7792969 C29.8291016,18.7792969 30.3393555,18.671875 30.7836914,18.4570312 C31.2280273,18.2421875 31.6015625,17.9443359 31.9042969,17.5634766 C32.2070312,17.1826172 32.4365234,16.7260742 32.5927734,16.1938477 C32.7490234,15.6616211 32.8271484,15.078125 32.8271484,14.4433594 L32.8271484,14.3408203 C32.8271484,13.7060547 32.7490234,13.1225586 32.5927734,12.590332 C32.4365234,12.0581055 32.2070312,11.5991211 31.9042969,11.2133789 C31.6015625,10.8276367 31.2280273,10.5273438 30.7836914,10.3125 C30.3393555,10.0976562 29.8291016,9.99023438 29.2529297,9.99023438 C28.6767578,9.99023438 28.1665039,10.0976562 27.722168,10.3125 C27.277832,10.5273438 26.9042969,10.8276367 26.6015625,11.2133789 C26.2988281,11.5991211 26.0693359,12.0581055 25.9130859,12.590332 C25.7568359,13.1225586 25.6787109,13.7060547 25.6787109,14.3408203 L25.6787109,14.4433594 C25.6787109,15.078125 25.7568359,15.6616211 25.9130859,16.1938477 C26.0693359,16.7260742 26.2988281,17.1826172 26.6015625,17.5634766 C26.9042969,17.9443359 27.277832,18.2421875 27.722168,18.4570312 C28.1665039,18.671875 28.6767578,18.7792969 29.2529297,18.7792969 Z" id="Shape"></path>
                <path d="M46.5380859,6.24023438 C47.7001953,6.24023438 48.7548828,6.44775391 49.7021484,6.86279297 C50.6494141,7.27783203 51.4599609,7.8515625 52.1337891,8.58398438 C52.8076172,9.31640625 53.3276367,10.1806641 53.6938477,11.1767578 C54.0600586,12.1728516 54.2431641,13.2470703 54.2431641,14.3994141 C54.2431641,15.5615234 54.0576172,16.6381836 53.6865234,17.6293945 C53.3154297,18.6206055 52.7929688,19.4775391 52.1191406,20.2001953 C51.4453125,20.9228516 50.6347656,21.4916992 49.6875,21.9067383 C48.7402344,22.3217773 47.6904297,22.5292969 46.5380859,22.5292969 C45.3759766,22.5292969 44.3212891,22.3217773 43.3740234,21.9067383 C42.4267578,21.4916992 41.6162109,20.9228516 40.9423828,20.2001953 C40.2685547,19.4775391 39.7460938,18.6206055 39.375,17.6293945 C39.0039062,16.6381836 38.8183594,15.5615234 38.8183594,14.3994141 C38.8183594,13.2470703 39.0014648,12.1728516 39.3676758,11.1767578 C39.7338867,10.1806641 40.2539062,9.31640625 40.9277344,8.58398438 C41.6015625,7.8515625 42.4145508,7.27783203 43.3666992,6.86279297 C44.3188477,6.44775391 45.3759766,6.24023438 46.5380859,6.24023438 Z M46.5380859,18.7792969 C47.1142578,18.7792969 47.6245117,18.671875 48.0688477,18.4570312 C48.5131836,18.2421875 48.8867188,17.9443359 49.1894531,17.5634766 C49.4921875,17.1826172 49.7216797,16.7260742 49.8779297,16.1938477 C50.0341797,15.6616211 50.1123047,15.078125 50.1123047,14.4433594 L50.1123047,14.3408203 C50.1123047,13.7060547 50.0341797,13.1225586 49.8779297,12.590332 C49.7216797,12.0581055 49.4921875,11.5991211 49.1894531,11.2133789 C48.8867188,10.8276367 48.5131836,10.5273438 48.0688477,10.3125 C47.6245117,10.0976562 47.1142578,9.99023438 46.5380859,9.99023438 C45.9619141,9.99023438 45.4516602,10.0976562 45.0073242,10.3125 C44.5629883,10.5273438 44.1894531,10.8276367 43.8867188,11.2133789 C43.5839844,11.5991211 43.3544922,12.0581055 43.1982422,12.590332 C43.0419922,13.1225586 42.9638672,13.7060547 42.9638672,14.3408203 L42.9638672,14.4433594 C42.9638672,15.078125 43.0419922,15.6616211 43.1982422,16.1938477 C43.3544922,16.7260742 43.5839844,17.1826172 43.8867188,17.5634766 C44.1894531,17.9443359 44.5629883,18.2421875 45.0073242,18.4570312 C45.4516602,18.671875 45.9619141,18.7792969 46.5380859,18.7792969 Z" id="Shape"></path>
                <path d="M67.0019531,22.2363281 L67.0019531,20.8886719 C66.7871094,21.1230469 66.550293,21.340332 66.2915039,21.5405273 C66.0327148,21.7407227 65.7446289,21.9140625 65.4272461,22.0605469 C65.1098633,22.2070312 64.7631836,22.3217773 64.387207,22.4047852 C64.0112305,22.487793 63.59375,22.5292969 63.1347656,22.5292969 C62.0996094,22.5292969 61.1523438,22.3242188 60.2929688,21.9140625 C59.4335938,21.5039062 58.6962891,20.9375 58.0810547,20.2148438 C57.4658203,19.4921875 56.9897461,18.6328125 56.652832,17.6367188 C56.315918,16.640625 56.1474609,15.5615234 56.1474609,14.3994141 C56.1474609,13.2373047 56.3134766,12.1582031 56.6455078,11.1621094 C56.9775391,10.1660156 57.4438477,9.30419922 58.0444336,8.57666016 C58.6450195,7.84912109 59.3701172,7.27783203 60.2197266,6.86279297 C61.0693359,6.44775391 62.0117188,6.24023438 63.046875,6.24023438 C63.9648438,6.24023438 64.7436523,6.39892578 65.3833008,6.71630859 C66.0229492,7.03369141 66.5625,7.42675781 67.0019531,7.89550781 L67.0019531,1.23046875 L71.0449219,1.23046875 L71.0449219,22.2363281 L67.0019531,22.2363281 Z M67.1191406,12.9345703 C67.1191406,12.5146484 67.043457,12.1240234 66.8920898,11.7626953 C66.7407227,11.4013672 66.5234375,11.0888672 66.2402344,10.8251953 C65.9570312,10.5615234 65.6176758,10.3564453 65.222168,10.2099609 C64.8266602,10.0634766 64.3798828,9.99023438 63.8818359,9.99023438 C63.3056641,9.99023438 62.7954102,10.0976562 62.3510742,10.3125 C61.9067383,10.5273438 61.5332031,10.8276367 61.2304688,11.2133789 C60.9277344,11.5991211 60.6982422,12.0556641 60.5419922,12.5830078 C60.3857422,13.1103516 60.3076172,13.6865234 60.3076172,14.3115234 L60.3076172,14.5019531 C60.3076172,15.1269531 60.3857422,15.7006836 60.5419922,16.2231445 C60.6982422,16.7456055 60.9277344,17.1972656 61.2304688,17.578125 C61.5332031,17.9589844 61.9067383,18.2543945 62.3510742,18.4643555 C62.7954102,18.6743164 63.3056641,18.7792969 63.8818359,18.7792969 C64.3798828,18.7792969 64.8266602,18.7060547 65.222168,18.5595703 C65.6176758,18.4130859 65.9570312,18.2080078 66.2402344,17.9443359 C66.5234375,17.6806641 66.7407227,17.3706055 66.8920898,17.0141602 C67.043457,16.6577148 67.1191406,16.2695312 67.1191406,15.8496094 L67.1191406,12.9345703 Z" id="Shape"></path>
                <path d="M79.8779297,1.23046875 L83.9208984,1.23046875 L83.9208984,17.9736328 C83.9208984,18.3056641 84.0161133,18.5595703 84.206543,18.7353516 C84.3969727,18.9111328 84.7021484,18.9990234 85.1220703,18.9990234 C85.3173828,18.9990234 85.4858398,18.9868164 85.6274414,18.9624023 C85.769043,18.9379883 85.9521484,18.9013672 86.1767578,18.8525391 L86.4990234,22.2949219 C86.2255859,22.3339844 85.9326172,22.3730469 85.6201172,22.4121094 C85.3564453,22.4414062 85.0512695,22.4682617 84.7045898,22.4926758 C84.3579102,22.5170898 83.9990234,22.5292969 83.6279297,22.5292969 C83.0517578,22.5292969 82.5341797,22.4560547 82.0751953,22.3095703 C81.6162109,22.1630859 81.2231445,21.9458008 80.8959961,21.6577148 C80.5688477,21.3696289 80.3173828,21.0107422 80.1416016,20.5810547 C79.9658203,20.1513672 79.8779297,19.6533203 79.8779297,19.0869141 L79.8779297,1.23046875 Z" id="Path"></path>
                <path d="M95.625,6.24023438 C96.7871094,6.24023438 97.8417969,6.44775391 98.7890625,6.86279297 C99.7363281,7.27783203 100.546875,7.8515625 101.220703,8.58398438 C101.894531,9.31640625 102.414551,10.1806641 102.780762,11.1767578 C103.146973,12.1728516 103.330078,13.2470703 103.330078,14.3994141 C103.330078,15.5615234 103.144531,16.6381836 102.773438,17.6293945 C102.402344,18.6206055 101.879883,19.4775391 101.206055,20.2001953 C100.532227,20.9228516 99.7216797,21.4916992 98.7744141,21.9067383 C97.8271484,22.3217773 96.7773438,22.5292969 95.625,22.5292969 C94.4628906,22.5292969 93.4082031,22.3217773 92.4609375,21.9067383 C91.5136719,21.4916992 90.703125,20.9228516 90.0292969,20.2001953 C89.3554688,19.4775391 88.8330078,18.6206055 88.4619141,17.6293945 C88.0908203,16.6381836 87.9052734,15.5615234 87.9052734,14.3994141 C87.9052734,13.2470703 88.0883789,12.1728516 88.4545898,11.1767578 C88.8208008,10.1806641 89.3408203,9.31640625 90.0146484,8.58398438 C90.6884766,7.8515625 91.5014648,7.27783203 92.4536133,6.86279297 C93.4057617,6.44775391 94.4628906,6.24023438 95.625,6.24023438 Z M95.625,18.7792969 C96.2011719,18.7792969 96.7114258,18.671875 97.1557617,18.4570312 C97.6000977,18.2421875 97.9736328,17.9443359 98.2763672,17.5634766 C98.5791016,17.1826172 98.8085938,16.7260742 98.9648438,16.1938477 C99.1210938,15.6616211 99.1992188,15.078125 99.1992188,14.4433594 L99.1992188,14.3408203 C99.1992188,13.7060547 99.1210938,13.1225586 98.9648438,12.590332 C98.8085938,12.0581055 98.5791016,11.5991211 98.2763672,11.2133789 C97.9736328,10.8276367 97.6000977,10.5273438 97.1557617,10.3125 C96.7114258,10.0976562 96.2011719,9.99023438 95.625,9.99023438 C95.0488281,9.99023438 94.5385742,10.0976562 94.0942383,10.3125 C93.6499023,10.5273438 93.2763672,10.8276367 92.9736328,11.2133789 C92.6708984,11.5991211 92.4414062,12.0581055 92.2851562,12.590332 C92.1289062,13.1225586 92.0507812,13.7060547 92.0507812,14.3408203 L92.0507812,14.4433594 C92.0507812,15.078125 92.1289062,15.6616211 92.2851562,16.1938477 C92.4414062,16.7260742 92.6708984,17.1826172 92.9736328,17.5634766 C93.2763672,17.9443359 93.6499023,18.2421875 94.0942383,18.4570312 C94.5385742,18.671875 95.0488281,18.7792969 95.625,18.7792969 Z" id="Shape"></path>
                <path d="M112.910156,6.24023438 C114.072266,6.24023438 115.126953,6.44775391 116.074219,6.86279297 C117.021484,7.27783203 117.832031,7.8515625 118.505859,8.58398438 C119.179688,9.31640625 119.699707,10.1806641 120.065918,11.1767578 C120.432129,12.1728516 120.615234,13.2470703 120.615234,14.3994141 C120.615234,15.5615234 120.429688,16.6381836 120.058594,17.6293945 C119.6875,18.6206055 119.165039,19.4775391 118.491211,20.2001953 C117.817383,20.9228516 117.006836,21.4916992 116.05957,21.9067383 C115.112305,22.3217773 114.0625,22.5292969 112.910156,22.5292969 C111.748047,22.5292969 110.693359,22.3217773 109.746094,21.9067383 C108.798828,21.4916992 107.988281,20.9228516 107.314453,20.2001953 C106.640625,19.4775391 106.118164,18.6206055 105.74707,17.6293945 C105.375977,16.6381836 105.19043,15.5615234 105.19043,14.3994141 C105.19043,13.2470703 105.373535,12.1728516 105.739746,11.1767578 C106.105957,10.1806641 106.625977,9.31640625 107.299805,8.58398438 C107.973633,7.8515625 108.786621,7.27783203 109.73877,6.86279297 C110.690918,6.44775391 111.748047,6.24023438 112.910156,6.24023438 Z M112.910156,18.7792969 C113.486328,18.7792969 113.996582,18.671875 114.440918,18.4570312 C114.885254,18.2421875 115.258789,17.9443359 115.561523,17.5634766 C115.864258,17.1826172 116.09375,16.7260742 116.25,16.1938477 C116.40625,15.6616211 116.484375,15.078125 116.484375,14.4433594 L116.484375,14.3408203 C116.484375,13.7060547 116.40625,13.1225586 116.25,12.590332 C116.09375,12.0581055 115.864258,11.5991211 115.561523,11.2133789 C115.258789,10.8276367 114.885254,10.5273438 114.440918,10.3125 C113.996582,10.0976562 113.486328,9.99023438 112.910156,9.99023438 C112.333984,9.99023438 111.82373,10.0976562 111.379395,10.3125 C110.935059,10.5273438 110.561523,10.8276367 110.258789,11.2133789 C109.956055,11.5991211 109.726562,12.0581055 109.570312,12.590332 C109.414062,13.1225586 109.335938,13.7060547 109.335938,14.3408203 L109.335938,14.4433594 C109.335938,15.078125 109.414062,15.6616211 109.570312,16.1938477 C109.726562,16.7260742 109.956055,17.1826172 110.258789,17.5634766 C110.561523,17.9443359 110.935059,18.2421875 111.379395,18.4570312 C111.82373,18.671875 112.333984,18.7792969 112.910156,18.7792969 Z" id="Shape"></path>
                <polygon id="Path" points="127.338867 12.7001953 132.568359 6.54785156 137.607422 6.54785156 131.938477 12.9638672 137.768555 22.2363281 132.905273 22.2363281 128.994141 15.8496094 127.338867 17.6513672 127.338867 22.2363281 123.295898 22.2363281 123.295898 1.23046875 127.338867 1.23046875"></polygon>
                <path d="M140.639648,17.2265625 C141.21582,17.7441406 141.904297,18.1884766 142.705078,18.5595703 C143.505859,18.9306641 144.316406,19.1162109 145.136719,19.1162109 C145.732422,19.1162109 146.201172,19.0014648 146.542969,18.7719727 C146.884766,18.5424805 147.055664,18.2470703 147.055664,17.8857422 C147.055664,17.2705078 146.396484,16.7919922 145.078125,16.4501953 L143.935547,16.1425781 C143.369141,16.0058594 142.797852,15.8178711 142.22168,15.5786133 C141.645508,15.3393555 141.115723,15.0244141 140.632324,14.6337891 C140.148926,14.2431641 139.758301,13.7670898 139.460449,13.2055664 C139.162598,12.644043 139.013672,11.953125 139.013672,11.1328125 C139.013672,10.4785156 139.157715,9.85595703 139.445801,9.26513672 C139.733887,8.67431641 140.144043,8.15429688 140.67627,7.70507812 C141.208496,7.25585938 141.855469,6.89941406 142.617188,6.63574219 C143.378906,6.37207031 144.228516,6.24023438 145.166016,6.24023438 C146.503906,6.24023438 147.697754,6.45019531 148.747559,6.87011719 C149.797363,7.29003906 150.625,7.76367188 151.230469,8.29101562 L149.121094,10.9863281 C148.623047,10.625 148.034668,10.3149414 147.355957,10.0561523 C146.677246,9.79736328 145.996094,9.66796875 145.3125,9.66796875 C144.677734,9.66796875 144.18457,9.78271484 143.833008,10.012207 C143.481445,10.2416992 143.305664,10.5175781 143.305664,10.8398438 C143.305664,11.1816406 143.459473,11.4575195 143.76709,11.6674805 C144.074707,11.8774414 144.521484,12.0605469 145.107422,12.2167969 L146.806641,12.7001953 C148.427734,13.1591797 149.589844,13.7792969 150.292969,14.5605469 C150.996094,15.3417969 151.347656,16.328125 151.347656,17.5195312 C151.347656,18.1835938 151.210938,18.815918 150.9375,19.4165039 C150.664062,20.0170898 150.263672,20.5517578 149.736328,21.0205078 C149.208984,21.4892578 148.554688,21.8579102 147.773438,22.1264648 C146.992188,22.3950195 146.103516,22.5292969 145.107422,22.5292969 C144.345703,22.5292969 143.630371,22.4609375 142.961426,22.3242188 C142.29248,22.1875 141.672363,21.9995117 141.101074,21.7602539 C140.529785,21.5209961 140.014648,21.25 139.555664,20.9472656 C139.09668,20.6445312 138.706055,20.3417969 138.383789,20.0390625 L140.639648,17.2265625 Z" id="Path"></path>
                <path d="M159.301758,1.23046875 L163.344727,1.23046875 L163.344727,17.9736328 C163.344727,18.3056641 163.439941,18.5595703 163.630371,18.7353516 C163.820801,18.9111328 164.125977,18.9990234 164.545898,18.9990234 C164.741211,18.9990234 164.909668,18.9868164 165.05127,18.9624023 C165.192871,18.9379883 165.375977,18.9013672 165.600586,18.8525391 L165.922852,22.2949219 C165.649414,22.3339844 165.356445,22.3730469 165.043945,22.4121094 C164.780273,22.4414062 164.475098,22.4682617 164.128418,22.4926758 C163.781738,22.5170898 163.422852,22.5292969 163.051758,22.5292969 C162.475586,22.5292969 161.958008,22.4560547 161.499023,22.3095703 C161.040039,22.1630859 160.646973,21.9458008 160.319824,21.6577148 C159.992676,21.3696289 159.741211,21.0107422 159.56543,20.5810547 C159.389648,20.1513672 159.301758,19.6533203 159.301758,19.0869141 L159.301758,1.23046875 Z" id="Path"></path>
                <path d="M172.192383,22.2363281 L168.149414,22.2363281 L168.149414,6.54785156 L172.192383,6.54785156 L172.192383,22.2363281 Z M167.724609,2.43164062 C167.724609,2.09960938 167.788086,1.78466797 167.915039,1.48681641 C168.041992,1.18896484 168.215332,0.930175781 168.435059,0.710449219 C168.654785,0.490722656 168.911133,0.317382813 169.204102,0.190429688 C169.49707,0.0634765625 169.814453,0 170.15625,0 C170.488281,0 170.803223,0.0634765625 171.101074,0.190429688 C171.398926,0.317382813 171.657715,0.490722656 171.877441,0.710449219 C172.097168,0.930175781 172.270508,1.18896484 172.397461,1.48681641 C172.524414,1.78466797 172.587891,2.09960938 172.587891,2.43164062 C172.587891,2.7734375 172.524414,3.09082031 172.397461,3.38378906 C172.270508,3.67675781 172.097168,3.93310547 171.877441,4.15283203 C171.657715,4.37255859 171.398926,4.54589844 171.101074,4.67285156 C170.803223,4.79980469 170.488281,4.86328125 170.15625,4.86328125 C169.814453,4.86328125 169.49707,4.79980469 169.204102,4.67285156 C168.911133,4.54589844 168.654785,4.37255859 168.435059,4.15283203 C168.215332,3.93310547 168.041992,3.67675781 167.915039,3.38378906 C167.788086,3.09082031 167.724609,2.7734375 167.724609,2.43164062 Z" id="Shape"></path>
                <polygon id="Path" points="179.72168 12.7001953 184.951172 6.54785156 189.990234 6.54785156 184.321289 12.9638672 190.151367 22.2363281 185.288086 22.2363281 181.376953 15.8496094 179.72168 17.6513672 179.72168 22.2363281 175.678711 22.2363281 175.678711 1.23046875 179.72168 1.23046875"></polygon>
                <path d="M194.399414,15.7910156 C194.467773,16.2597656 194.616699,16.6894531 194.846191,17.0800781 C195.075684,17.4707031 195.366211,17.8051758 195.717773,18.0834961 C196.069336,18.3618164 196.474609,18.5791016 196.933594,18.7353516 C197.392578,18.8916016 197.880859,18.9697266 198.398438,18.9697266 C198.994141,18.9697266 199.638672,18.8549805 200.332031,18.6254883 C201.025391,18.3959961 201.660156,18.0615234 202.236328,17.6220703 L204.18457,20.4638672 C203.452148,21.0791016 202.553711,21.5771484 201.489258,21.9580078 C200.424805,22.3388672 199.291992,22.5292969 198.09082,22.5292969 C197.006836,22.5292969 195.986328,22.34375 195.029297,21.9726562 C194.072266,21.6015625 193.234863,21.0644531 192.51709,20.3613281 C191.799316,19.6582031 191.23291,18.8037109 190.817871,17.7978516 C190.402832,16.7919922 190.195312,15.6591797 190.195312,14.3994141 C190.195312,13.2470703 190.378418,12.1728516 190.744629,11.1767578 C191.11084,10.1806641 191.623535,9.31640625 192.282715,8.58398438 C192.941895,7.8515625 193.730469,7.27783203 194.648438,6.86279297 C195.566406,6.44775391 196.582031,6.24023438 197.695312,6.24023438 C198.730469,6.24023438 199.692383,6.42822266 200.581055,6.80419922 C201.469727,7.18017578 202.241211,7.70751953 202.895508,8.38623047 C203.549805,9.06494141 204.0625,9.87792969 204.433594,10.8251953 C204.804688,11.7724609 204.990234,12.8173828 204.990234,13.9599609 L204.990234,15.7910156 L194.399414,15.7910156 Z M197.680664,9.75585938 C196.811523,9.75585938 196.07666,10.0463867 195.476074,10.6274414 C194.875488,11.2084961 194.526367,11.9091797 194.428711,12.7294922 L200.756836,12.7294922 C200.737305,11.8994141 200.43457,11.1962891 199.848633,10.6201172 C199.262695,10.0439453 198.540039,9.75585938 197.680664,9.75585938 Z" id="Shape"></path>
                <path d="M218.15918,17.5634766 C218.15918,17.7490234 218.183594,17.9248047 218.232422,18.0908203 C218.28125,18.2568359 218.366699,18.4008789 218.48877,18.5229492 C218.61084,18.6450195 218.78418,18.7402344 219.008789,18.8085938 C219.233398,18.8769531 219.521484,18.9111328 219.873047,18.9111328 C220.019531,18.9111328 220.185547,18.9038086 220.371094,18.8891602 C220.556641,18.8745117 220.742188,18.8574219 220.927734,18.8378906 C221.113281,18.8183594 221.286621,18.7939453 221.447754,18.7646484 C221.608887,18.7353516 221.743164,18.7109375 221.850586,18.6914062 L222.216797,22.265625 C221.835938,22.3144531 221.44043,22.3583984 221.030273,22.3974609 C220.678711,22.4365234 220.288086,22.4682617 219.858398,22.4926758 C219.428711,22.5170898 218.994141,22.5292969 218.554688,22.5292969 C217.158203,22.5292969 216.069336,22.2119141 215.288086,21.5771484 C214.506836,20.9423828 214.116211,19.9316406 214.116211,18.5449219 L214.116211,10.0634766 L211.289062,10.0634766 L211.289062,6.54785156 L214.116211,6.54785156 L214.116211,2.109375 L218.15918,1.02539062 L218.15918,6.54785156 L222.275391,6.54785156 L222.275391,10.0634766 L218.15918,10.0634766 L218.15918,17.5634766 Z" id="Path"></path>
                <path d="M224.824219,1.23046875 L228.867188,1.23046875 L228.867188,7.89550781 C229.082031,7.68066406 229.32373,7.47314453 229.592285,7.27294922 C229.86084,7.07275391 230.15625,6.89697266 230.478516,6.74560547 C230.800781,6.59423828 231.159668,6.47216797 231.555176,6.37939453 C231.950684,6.28662109 232.387695,6.24023438 232.866211,6.24023438 C233.71582,6.24023438 234.477539,6.37939453 235.151367,6.65771484 C235.825195,6.93603516 236.394043,7.31933594 236.85791,7.80761719 C237.321777,8.29589844 237.675781,8.8671875 237.919922,9.52148438 C238.164062,10.1757812 238.286133,10.8837891 238.286133,11.6455078 L238.286133,22.2363281 L234.243164,22.2363281 L234.243164,13.1103516 C234.243164,12.5537109 234.179688,12.0825195 234.052734,11.6967773 C233.925781,11.3110352 233.752441,10.9985352 233.532715,10.7592773 C233.312988,10.5200195 233.054199,10.3442383 232.756348,10.2319336 C232.458496,10.1196289 232.133789,10.0634766 231.782227,10.0634766 C231.37207,10.0634766 230.98877,10.1367188 230.632324,10.2832031 C230.275879,10.4296875 229.96582,10.6518555 229.702148,10.949707 C229.438477,11.2475586 229.233398,11.6210938 229.086914,12.0703125 C228.94043,12.5195312 228.867188,13.046875 228.867188,13.6523438 L228.867188,22.2363281 L224.824219,22.2363281 L224.824219,1.23046875 Z" id="Path"></path>
                <path d="M245.698242,22.2363281 L241.655273,22.2363281 L241.655273,6.54785156 L245.698242,6.54785156 L245.698242,22.2363281 Z M241.230469,2.43164062 C241.230469,2.09960938 241.293945,1.78466797 241.420898,1.48681641 C241.547852,1.18896484 241.721191,0.930175781 241.940918,0.710449219 C242.160645,0.490722656 242.416992,0.317382813 242.709961,0.190429688 C243.00293,0.0634765625 243.320312,0 243.662109,0 C243.994141,0 244.309082,0.0634765625 244.606934,0.190429688 C244.904785,0.317382813 245.163574,0.490722656 245.383301,0.710449219 C245.603027,0.930175781 245.776367,1.18896484 245.90332,1.48681641 C246.030273,1.78466797 246.09375,2.09960938 246.09375,2.43164062 C246.09375,2.7734375 246.030273,3.09082031 245.90332,3.38378906 C245.776367,3.67675781 245.603027,3.93310547 245.383301,4.15283203 C245.163574,4.37255859 244.904785,4.54589844 244.606934,4.67285156 C244.309082,4.79980469 243.994141,4.86328125 243.662109,4.86328125 C243.320312,4.86328125 243.00293,4.79980469 242.709961,4.67285156 C242.416992,4.54589844 242.160645,4.37255859 241.940918,4.15283203 C241.721191,3.93310547 241.547852,3.67675781 241.420898,3.38378906 C241.293945,3.09082031 241.230469,2.7734375 241.230469,2.43164062 Z" id="Shape"></path>
                <path d="M250.297852,17.2265625 C250.874023,17.7441406 251.5625,18.1884766 252.363281,18.5595703 C253.164062,18.9306641 253.974609,19.1162109 254.794922,19.1162109 C255.390625,19.1162109 255.859375,19.0014648 256.201172,18.7719727 C256.542969,18.5424805 256.713867,18.2470703 256.713867,17.8857422 C256.713867,17.2705078 256.054688,16.7919922 254.736328,16.4501953 L253.59375,16.1425781 C253.027344,16.0058594 252.456055,15.8178711 251.879883,15.5786133 C251.303711,15.3393555 250.773926,15.0244141 250.290527,14.6337891 C249.807129,14.2431641 249.416504,13.7670898 249.118652,13.2055664 C248.820801,12.644043 248.671875,11.953125 248.671875,11.1328125 C248.671875,10.4785156 248.815918,9.85595703 249.104004,9.26513672 C249.39209,8.67431641 249.802246,8.15429688 250.334473,7.70507812 C250.866699,7.25585938 251.513672,6.89941406 252.275391,6.63574219 C253.037109,6.37207031 253.886719,6.24023438 254.824219,6.24023438 C256.162109,6.24023438 257.355957,6.45019531 258.405762,6.87011719 C259.455566,7.29003906 260.283203,7.76367188 260.888672,8.29101562 L258.779297,10.9863281 C258.28125,10.625 257.692871,10.3149414 257.01416,10.0561523 C256.335449,9.79736328 255.654297,9.66796875 254.970703,9.66796875 C254.335938,9.66796875 253.842773,9.78271484 253.491211,10.012207 C253.139648,10.2416992 252.963867,10.5175781 252.963867,10.8398438 C252.963867,11.1816406 253.117676,11.4575195 253.425293,11.6674805 C253.73291,11.8774414 254.179688,12.0605469 254.765625,12.2167969 L256.464844,12.7001953 C258.085938,13.1591797 259.248047,13.7792969 259.951172,14.5605469 C260.654297,15.3417969 261.005859,16.328125 261.005859,17.5195312 C261.005859,18.1835938 260.869141,18.815918 260.595703,19.4165039 C260.322266,20.0170898 259.921875,20.5517578 259.394531,21.0205078 C258.867188,21.4892578 258.212891,21.8579102 257.431641,22.1264648 C256.650391,22.3950195 255.761719,22.5292969 254.765625,22.5292969 C254.003906,22.5292969 253.288574,22.4609375 252.619629,22.3242188 C251.950684,22.1875 251.330566,21.9995117 250.759277,21.7602539 C250.187988,21.5209961 249.672852,21.25 249.213867,20.9472656 C248.754883,20.6445312 248.364258,20.3417969 248.041992,20.0390625 L250.297852,17.2265625 Z" id="Path"></path>
            </g>
        </g>
    </g>
</svg>