<?xml version="1.0" encoding="UTF-8"?>
<svg width="52px" height="20px" viewBox="0 0 52 20" version="1.1" xmlns="http://www.w3.org/2000/svg" xmlns:xlink="http://www.w3.org/1999/xlink">
    <title>cases-box</title>
    <g id="Page-1" stroke="none" stroke-width="1" fill="none" fill-rule="evenodd">
        <g id="Group">
            <rect id="Rectangle-Copy-2" fill="#EAEAEA" x="0" y="0" width="52" height="20"></rect>
            <path d="M2.64746094,9.04833984 C2.64746094,8.1961263 2.77612305,7.39786784 3.03344727,6.65356445 C3.29077148,5.90926107 3.66015625,5.26180013 4.14160156,4.71118164 C4.62304688,4.16056315 5.20686849,3.7261556 5.89306641,3.40795898 C6.57926432,3.08976237 7.35123698,2.93066406 8.20898438,2.93066406 C8.82877604,2.93066406 9.40291341,3.01090495 9.93139648,3.17138672 C10.4598796,3.33186849 10.935791,3.55875651 11.3591309,3.85205078 C11.7824707,4.14534505 12.1463216,4.49951172 12.4506836,4.91455078 C12.7550456,5.32958984 12.9957682,5.79443359 13.1728516,6.30908203 L10.8569336,7.08105469 C10.7905273,6.85970052 10.6853841,6.63142904 10.5415039,6.39624023 C10.3976237,6.16105143 10.2150065,5.94799805 9.99365234,5.75708008 C9.77229818,5.56616211 9.51359049,5.40983073 9.2175293,5.28808594 C8.9214681,5.16634115 8.59082031,5.10546875 8.22558594,5.10546875 C7.67773438,5.10546875 7.20874023,5.2175293 6.81860352,5.44165039 C6.4284668,5.66577148 6.10888672,5.96183268 5.85986328,6.32983398 C5.61083984,6.69783529 5.42683919,7.11564128 5.30786133,7.58325195 C5.18888346,8.05086263 5.12939453,8.52815755 5.12939453,9.01513672 L5.12939453,9.08154297 C5.12939453,9.57405599 5.18888346,10.0541178 5.30786133,10.5217285 C5.42683919,10.9893392 5.61083984,11.4057617 5.85986328,11.7709961 C6.10888672,12.1362305 6.4284668,12.4309082 6.81860352,12.6550293 C7.20874023,12.8791504 7.67773438,12.9912109 8.22558594,12.9912109 C8.59082031,12.9912109 8.9214681,12.9303385 9.2175293,12.8085938 C9.51359049,12.686849 9.77229818,12.5305176 9.99365234,12.3395996 C10.2150065,12.1486816 10.3976237,11.9370117 10.5415039,11.7045898 C10.6853841,11.472168 10.7905273,11.2452799 10.8569336,11.0239258 L13.1728516,11.7875977 C12.9957682,12.3022461 12.7550456,12.7670898 12.4506836,13.1821289 C12.1463216,13.597168 11.7824707,13.9527181 11.3591309,14.2487793 C10.935791,14.5448405 10.4598796,14.7717285 9.93139648,14.9294434 C9.40291341,15.0871582 8.82877604,15.1660156 8.20898438,15.1660156 C7.35123698,15.1660156 6.57926432,15.0083008 5.89306641,14.6928711 C5.20686849,14.3774414 4.62304688,13.9430339 4.14160156,13.3896484 C3.66015625,12.836263 3.29077148,12.1888021 3.03344727,11.4472656 C2.77612305,10.7057292 2.64746094,9.90608724 2.64746094,9.04833984 Z" id="Path" fill="#000000" fill-rule="nonzero"></path>
            <path d="M17.5224609,11.3891602 C17.2402344,11.433431 17.0133464,11.5316569 16.8417969,11.6838379 C16.6702474,11.8360189 16.5844727,12.0421549 16.5844727,12.3022461 C16.5844727,12.5900065 16.6896159,12.8376465 16.8999023,13.045166 C17.1101888,13.2526855 17.4200846,13.3564453 17.8295898,13.3564453 C18.2612305,13.3564453 18.6015625,13.2319336 18.8505859,12.9829102 C19.0996094,12.7338867 19.2241211,12.4046224 19.2241211,11.9951172 L19.2241211,11.0986328 L17.5224609,11.3891602 Z M19.5976562,14.1616211 C19.5035807,14.2667643 19.3887533,14.3788249 19.2531738,14.4978027 C19.1175944,14.6167806 18.9571126,14.7246908 18.7717285,14.8215332 C18.5863444,14.9183757 18.3691406,15 18.1201172,15.0664062 C17.8710938,15.1328125 17.5916341,15.1660156 17.2817383,15.1660156 C16.8390299,15.1660156 16.4309082,15.095459 16.057373,14.9543457 C15.6838379,14.8132324 15.355957,14.6153971 15.0737305,14.3608398 C14.7915039,14.1062826 14.5701497,13.8116048 14.409668,13.4768066 C14.2491862,13.1420085 14.1689453,12.7781576 14.1689453,12.3852539 C14.1689453,11.6713867 14.3902995,11.0875651 14.8330078,10.6337891 C15.2757161,10.180013 15.887207,9.89501953 16.6674805,9.77880859 L19.2241211,9.40527344 L19.2241211,9.23925781 C19.2241211,8.84082031 19.1023763,8.52539062 18.8588867,8.29296875 C18.6153971,8.06054688 18.2197266,7.94433594 17.671875,7.94433594 C17.444987,7.94433594 17.215332,7.97062174 16.9829102,8.02319336 C16.7504883,8.07576497 16.5277507,8.13525391 16.3146973,8.20166016 C16.1016439,8.26806641 15.9038086,8.3441569 15.7211914,8.42993164 C15.5385742,8.51570638 15.3780924,8.59179688 15.2397461,8.65820312 L14.3432617,6.90673828 C14.8523763,6.62451172 15.4182129,6.39208984 16.0407715,6.20947266 C16.6633301,6.02685547 17.3094076,5.93554688 17.9790039,5.93554688 C18.3885091,5.93554688 18.8021647,5.97843424 19.2199707,6.06420898 C19.6377767,6.14998372 20.0168457,6.3063151 20.3571777,6.53320312 C20.6975098,6.76009115 20.9755859,7.06860352 21.1914062,7.45874023 C21.4072266,7.84887695 21.5151367,8.34554036 21.5151367,8.94873047 L21.5151367,12.6010742 C21.5151367,12.8611654 21.5829264,13.0534668 21.7185059,13.1779785 C21.8540853,13.3024902 22.0408529,13.4173177 22.2788086,13.5224609 L21.2412109,15.1660156 C20.820638,15.1217448 20.4830729,15.0124512 20.2285156,14.8381348 C19.9739583,14.6638184 19.7636719,14.4383138 19.5976562,14.1616211 Z" id="Shape" fill="#000000" fill-rule="nonzero"></path>
            <path d="M24.0551758,12.1611328 C24.3816732,12.4544271 24.7718099,12.7062174 25.2255859,12.9165039 C25.679362,13.1267904 26.1386719,13.2319336 26.6035156,13.2319336 C26.9410807,13.2319336 27.2067057,13.1669108 27.4003906,13.0368652 C27.5940755,12.9068197 27.690918,12.7394206 27.690918,12.534668 C27.690918,12.1860352 27.3173828,11.9148763 26.5703125,11.7211914 L25.9228516,11.546875 C25.601888,11.469401 25.2781576,11.3628743 24.9516602,11.2272949 C24.6251628,11.0917155 24.3249512,10.9132487 24.0510254,10.6918945 C23.7770996,10.4705404 23.5557454,10.200765 23.3869629,9.88256836 C23.2181803,9.56437174 23.1337891,9.17285156 23.1337891,8.70800781 C23.1337891,8.33723958 23.2154134,7.98445638 23.3786621,7.6496582 C23.5419108,7.31486003 23.7743327,7.02018229 24.0759277,6.765625 C24.3775228,6.51106771 24.7441406,6.30908203 25.1757812,6.15966797 C25.6074219,6.01025391 26.0888672,5.93554688 26.6201172,5.93554688 C27.3782552,5.93554688 28.0547689,6.05452474 28.6496582,6.29248047 C29.2445475,6.5304362 29.7135417,6.79882812 30.0566406,7.09765625 L28.8613281,8.625 C28.5791016,8.4202474 28.2456868,8.24454753 27.861084,8.09790039 C27.4764811,7.95125326 27.0904948,7.87792969 26.703125,7.87792969 C26.3434245,7.87792969 26.0639648,7.94295247 25.8647461,8.07299805 C25.6655273,8.20304362 25.565918,8.359375 25.565918,8.54199219 C25.565918,8.73567708 25.6530762,8.89200846 25.8273926,9.01098633 C26.001709,9.12996419 26.2548828,9.23372396 26.5869141,9.32226562 L27.5498047,9.59619141 C28.4684245,9.85628255 29.1269531,10.2076823 29.5253906,10.6503906 C29.9238281,11.093099 30.1230469,11.6520182 30.1230469,12.3271484 C30.1230469,12.7034505 30.0455729,13.0617676 29.890625,13.4020996 C29.7356771,13.7424316 29.5087891,14.0454102 29.2099609,14.3110352 C28.9111328,14.5766602 28.5403646,14.7855632 28.0976562,14.9377441 C27.6549479,15.0899251 27.1513672,15.1660156 26.5869141,15.1660156 C26.1552734,15.1660156 25.7499186,15.1272786 25.3708496,15.0498047 C24.9917806,14.9723307 24.6403809,14.865804 24.3166504,14.7302246 C23.9929199,14.5946452 23.7010091,14.4410807 23.440918,14.2695312 C23.1808268,14.0979818 22.9594727,13.9264323 22.7768555,13.7548828 L24.0551758,12.1611328 Z" id="Path" fill="#000000" fill-rule="nonzero"></path>
            <path d="M33.5180664,11.3476562 C33.5568034,11.6132812 33.6411947,11.8567708 33.7712402,12.078125 C33.9012858,12.2994792 34.065918,12.4890137 34.2651367,12.6467285 C34.4643555,12.8044434 34.6940104,12.9275716 34.9541016,13.0161133 C35.2141927,13.1046549 35.4908854,13.1489258 35.7841797,13.1489258 C36.1217448,13.1489258 36.4869792,13.083903 36.8798828,12.9538574 C37.2727865,12.8238118 37.632487,12.6342773 37.9589844,12.3852539 L39.0629883,13.9956055 C38.6479492,14.3442383 38.1388346,14.6264648 37.5356445,14.8422852 C36.9324544,15.0581055 36.2905273,15.1660156 35.6098633,15.1660156 C34.9956055,15.1660156 34.4173177,15.0608724 33.875,14.8505859 C33.3326823,14.6402995 32.8581543,14.3359375 32.451416,13.9375 C32.0446777,13.5390625 31.7237142,13.0548503 31.4885254,12.4848633 C31.2533366,11.9148763 31.1357422,11.2729492 31.1357422,10.559082 C31.1357422,9.90608724 31.239502,9.29736328 31.4470215,8.73291016 C31.654541,8.16845703 31.9450684,7.67871094 32.3186035,7.26367188 C32.6921387,6.84863281 33.1389974,6.52351888 33.6591797,6.28833008 C34.179362,6.05314128 34.7548828,5.93554688 35.3857422,5.93554688 C35.9723307,5.93554688 36.5174154,6.04207357 37.0209961,6.25512695 C37.5245768,6.46818034 37.9617513,6.76700846 38.3325195,7.15161133 C38.7032878,7.53621419 38.9938151,7.99690755 39.2041016,8.53369141 C39.414388,9.07047526 39.5195312,9.66259766 39.5195312,10.3100586 L39.5195312,11.3476562 L33.5180664,11.3476562 Z M35.3774414,7.92773438 C34.8849284,7.92773438 34.4685059,8.09236654 34.1281738,8.42163086 C33.7878418,8.75089518 33.5900065,9.14794922 33.534668,9.61279297 L37.1206055,9.61279297 C37.1095378,9.14241536 36.9379883,8.74397786 36.605957,8.41748047 C36.2739258,8.09098307 35.8644206,7.92773438 35.3774414,7.92773438 Z" id="Shape" fill="#000000" fill-rule="nonzero"></path>
            <path d="M41.6113281,12.1611328 C41.9378255,12.4544271 42.3279622,12.7062174 42.7817383,12.9165039 C43.2355143,13.1267904 43.6948242,13.2319336 44.159668,13.2319336 C44.4972331,13.2319336 44.7628581,13.1669108 44.956543,13.0368652 C45.1502279,12.9068197 45.2470703,12.7394206 45.2470703,12.534668 C45.2470703,12.1860352 44.8735352,11.9148763 44.1264648,11.7211914 L43.4790039,11.546875 C43.1580404,11.469401 42.8343099,11.3628743 42.5078125,11.2272949 C42.1813151,11.0917155 41.8811035,10.9132487 41.6071777,10.6918945 C41.333252,10.4705404 41.1118978,10.200765 40.9431152,9.88256836 C40.7743327,9.56437174 40.6899414,9.17285156 40.6899414,8.70800781 C40.6899414,8.33723958 40.7715658,7.98445638 40.9348145,7.6496582 C41.0980632,7.31486003 41.330485,7.02018229 41.6320801,6.765625 C41.9336751,6.51106771 42.300293,6.30908203 42.7319336,6.15966797 C43.1635742,6.01025391 43.6450195,5.93554688 44.1762695,5.93554688 C44.9344076,5.93554688 45.6109212,6.05452474 46.2058105,6.29248047 C46.8006999,6.5304362 47.269694,6.79882812 47.612793,7.09765625 L46.4174805,8.625 C46.1352539,8.4202474 45.8018392,8.24454753 45.4172363,8.09790039 C45.0326335,7.95125326 44.6466471,7.87792969 44.2592773,7.87792969 C43.8995768,7.87792969 43.6201172,7.94295247 43.4208984,8.07299805 C43.2216797,8.20304362 43.1220703,8.359375 43.1220703,8.54199219 C43.1220703,8.73567708 43.2092285,8.89200846 43.3835449,9.01098633 C43.5578613,9.12996419 43.8110352,9.23372396 44.1430664,9.32226562 L45.105957,9.59619141 C46.0245768,9.85628255 46.6831055,10.2076823 47.081543,10.6503906 C47.4799805,11.093099 47.6791992,11.6520182 47.6791992,12.3271484 C47.6791992,12.7034505 47.6017253,13.0617676 47.4467773,13.4020996 C47.2918294,13.7424316 47.0649414,14.0454102 46.7661133,14.3110352 C46.4672852,14.5766602 46.0965169,14.7855632 45.6538086,14.9377441 C45.2111003,15.0899251 44.7075195,15.1660156 44.1430664,15.1660156 C43.7114258,15.1660156 43.306071,15.1272786 42.927002,15.0498047 C42.5479329,14.9723307 42.1965332,14.865804 41.8728027,14.7302246 C41.5490723,14.5946452 41.2571615,14.4410807 40.9970703,14.2695312 C40.7369792,14.0979818 40.515625,13.9264323 40.3330078,13.7548828 L41.6113281,12.1611328 Z" id="Path" fill="#000000" fill-rule="nonzero"></path>
        </g>
    </g>
</svg>