<?xml version="1.0" encoding="UTF-8"?>
<svg width="46px" height="14px" viewBox="0 0 46 14" version="1.1" xmlns="http://www.w3.org/2000/svg" xmlns:xlink="http://www.w3.org/1999/xlink">
    <title>Cases</title>
    <g id="Page-1" stroke="none" stroke-width="1" fill="none" fill-rule="evenodd">
        <g id="Group" transform="translate(0.647461, 0.930664)" fill="#000000" fill-rule="nonzero">
            <g>
                <path d="M0,6.11767578 C0,5.26546224 0.128662109,4.46720378 0.385986328,3.72290039 C0.643310547,2.97859701 1.01269531,2.33113607 1.49414062,1.78051758 C1.97558594,1.22989909 2.55940755,0.795491536 3.24560547,0.477294922 C3.93180339,0.159098307 4.70377604,0 5.56152344,0 C6.1813151,0 6.75545247,0.0802408854 7.28393555,0.240722656 C7.81241862,0.401204427 8.28833008,0.628092448 8.71166992,0.921386719 C9.13500977,1.21468099 9.49886068,1.56884766 9.80322266,1.98388672 C10.1075846,2.39892578 10.3483073,2.86376953 10.5253906,3.37841797 L8.20947266,4.15039062 C8.14306641,3.92903646 8.03792318,3.70076497 7.89404297,3.46557617 C7.75016276,3.23038737 7.56754557,3.01733398 7.34619141,2.82641602 C7.12483724,2.63549805 6.86612956,2.47916667 6.57006836,2.35742188 C6.27400716,2.23567708 5.94335938,2.17480469 5.578125,2.17480469 C5.03027344,2.17480469 4.5612793,2.28686523 4.17114258,2.51098633 C3.78100586,2.73510742 3.46142578,3.03116862 3.21240234,3.39916992 C2.96337891,3.76717122 2.77937826,4.18497721 2.66040039,4.65258789 C2.54142253,5.12019857 2.48193359,5.59749349 2.48193359,6.08447266 L2.48193359,6.15087891 C2.48193359,6.64339193 2.54142253,7.12345378 2.66040039,7.59106445 C2.77937826,8.05867513 2.96337891,8.47509766 3.21240234,8.84033203 C3.46142578,9.20556641 3.78100586,9.50024414 4.17114258,9.72436523 C4.5612793,9.94848633 5.03027344,10.0605469 5.578125,10.0605469 C5.94335938,10.0605469 6.27400716,9.99967448 6.57006836,9.87792969 C6.86612956,9.7561849 7.12483724,9.59985352 7.34619141,9.40893555 C7.56754557,9.21801758 7.75016276,9.00634766 7.89404297,8.77392578 C8.03792318,8.54150391 8.14306641,8.31461589 8.20947266,8.09326172 L10.5253906,8.85693359 C10.3483073,9.37158203 10.1075846,9.83642578 9.80322266,10.2514648 C9.49886068,10.6665039 9.13500977,11.022054 8.71166992,11.3181152 C8.28833008,11.6141764 7.81241862,11.8410645 7.28393555,11.9987793 C6.75545247,12.1564941 6.1813151,12.2353516 5.56152344,12.2353516 C4.70377604,12.2353516 3.93180339,12.0776367 3.24560547,11.762207 C2.55940755,11.4467773 1.97558594,11.0123698 1.49414062,10.4589844 C1.01269531,9.90559896 0.643310547,9.25813802 0.385986328,8.51660156 C0.128662109,7.7750651 0,6.97542318 0,6.11767578 Z" id="Path"></path>
                <path d="M14.875,8.45849609 C14.5927734,8.50276693 14.3658854,8.60099284 14.1943359,8.75317383 C14.0227865,8.90535482 13.9370117,9.11149089 13.9370117,9.37158203 C13.9370117,9.65934245 14.0421549,9.90698242 14.2524414,10.114502 C14.4627279,10.3220215 14.7726237,10.4257812 15.1821289,10.4257812 C15.6137695,10.4257812 15.9541016,10.3012695 16.203125,10.0522461 C16.4521484,9.80322266 16.5766602,9.47395833 16.5766602,9.06445312 L16.5766602,8.16796875 L14.875,8.45849609 Z M16.9501953,11.230957 C16.8561198,11.3361003 16.7412923,11.4481608 16.6057129,11.5671387 C16.4701335,11.6861165 16.3096517,11.7940267 16.1242676,11.8908691 C15.9388835,11.9877116 15.7216797,12.0693359 15.4726562,12.1357422 C15.2236328,12.2021484 14.9441732,12.2353516 14.6342773,12.2353516 C14.191569,12.2353516 13.7834473,12.1647949 13.4099121,12.0236816 C13.036377,11.8825684 12.7084961,11.6847331 12.4262695,11.4301758 C12.144043,11.1756185 11.9226888,10.8809408 11.762207,10.5461426 C11.6017253,10.2113444 11.5214844,9.84749349 11.5214844,9.45458984 C11.5214844,8.74072266 11.7428385,8.15690104 12.1855469,7.703125 C12.6282552,7.24934896 13.2397461,6.96435547 14.0200195,6.84814453 L16.5766602,6.47460938 L16.5766602,6.30859375 C16.5766602,5.91015625 16.4549154,5.59472656 16.2114258,5.36230469 C15.9679362,5.12988281 15.5722656,5.01367188 15.0244141,5.01367188 C14.797526,5.01367188 14.5678711,5.03995768 14.3354492,5.0925293 C14.1030273,5.14510091 13.8802897,5.20458984 13.6672363,5.27099609 C13.4541829,5.33740234 13.2563477,5.41349284 13.0737305,5.49926758 C12.8911133,5.58504232 12.7306315,5.66113281 12.5922852,5.72753906 L11.6958008,3.97607422 C12.2049154,3.69384766 12.770752,3.46142578 13.3933105,3.27880859 C14.0158691,3.09619141 14.6619466,3.00488281 15.331543,3.00488281 C15.7410482,3.00488281 16.1547038,3.04777018 16.5725098,3.13354492 C16.9903158,3.21931966 17.3693848,3.37565104 17.7097168,3.60253906 C18.0500488,3.82942708 18.328125,4.13793945 18.5439453,4.52807617 C18.7597656,4.91821289 18.8676758,5.4148763 18.8676758,6.01806641 L18.8676758,9.67041016 C18.8676758,9.9305013 18.9354655,10.1228027 19.0710449,10.2473145 C19.2066243,10.3718262 19.3933919,10.4866536 19.6313477,10.5917969 L18.59375,12.2353516 C18.1731771,12.1910807 17.835612,12.0817871 17.5810547,11.9074707 C17.3264974,11.7331543 17.1162109,11.5076497 16.9501953,11.230957 Z" id="Shape"></path>
                <path d="M21.4077148,9.23046875 C21.7342122,9.52376302 22.124349,9.77555339 22.578125,9.98583984 C23.031901,10.1961263 23.4912109,10.3012695 23.9560547,10.3012695 C24.2936198,10.3012695 24.5592448,10.2362467 24.7529297,10.1062012 C24.9466146,9.9761556 25.043457,9.80875651 25.043457,9.60400391 C25.043457,9.25537109 24.6699219,8.98421224 23.9228516,8.79052734 L23.2753906,8.61621094 C22.9544271,8.53873698 22.6306966,8.43221029 22.3041992,8.29663086 C21.9777018,8.16105143 21.6774902,7.98258464 21.4035645,7.76123047 C21.1296387,7.5398763 20.9082845,7.27010091 20.739502,6.9519043 C20.5707194,6.63370768 20.4863281,6.2421875 20.4863281,5.77734375 C20.4863281,5.40657552 20.5679525,5.05379232 20.7312012,4.71899414 C20.8944499,4.38419596 21.1268717,4.08951823 21.4284668,3.83496094 C21.7300618,3.58040365 22.0966797,3.37841797 22.5283203,3.22900391 C22.9599609,3.07958984 23.4414062,3.00488281 23.9726562,3.00488281 C24.7307943,3.00488281 25.4073079,3.12386068 26.0021973,3.36181641 C26.5970866,3.59977214 27.0660807,3.86816406 27.4091797,4.16699219 L26.2138672,5.69433594 C25.9316406,5.48958333 25.5982259,5.31388346 25.213623,5.16723633 C24.8290202,5.02058919 24.4430339,4.94726562 24.0556641,4.94726562 C23.6959635,4.94726562 23.4165039,5.01228841 23.2172852,5.14233398 C23.0180664,5.27237956 22.918457,5.42871094 22.918457,5.61132812 C22.918457,5.80501302 23.0056152,5.9613444 23.1799316,6.08032227 C23.354248,6.19930013 23.6074219,6.3030599 23.9394531,6.39160156 L24.9023438,6.66552734 C25.8209635,6.92561849 26.4794922,7.27701823 26.8779297,7.71972656 C27.2763672,8.1624349 27.4755859,8.72135417 27.4755859,9.39648438 C27.4755859,9.77278646 27.398112,10.1311035 27.2431641,10.4714355 C27.0882161,10.8117676 26.8613281,11.1147461 26.5625,11.3803711 C26.2636719,11.6459961 25.8929036,11.8548991 25.4501953,12.0070801 C25.007487,12.1592611 24.5039062,12.2353516 23.9394531,12.2353516 C23.5078125,12.2353516 23.1024577,12.1966146 22.7233887,12.1191406 C22.3443197,12.0416667 21.9929199,11.93514 21.6691895,11.7995605 C21.345459,11.6639811 21.0535482,11.5104167 20.793457,11.3388672 C20.5333659,11.1673177 20.3120117,10.9957682 20.1293945,10.8242188 L21.4077148,9.23046875 Z" id="Path"></path>
                <path d="M30.8706055,8.41699219 C30.9093424,8.68261719 30.9937337,8.92610677 31.1237793,9.14746094 C31.2538249,9.3688151 31.418457,9.55834961 31.6176758,9.71606445 C31.8168945,9.8737793 32.0465495,9.99690755 32.3066406,10.0854492 C32.5667318,10.1739909 32.8434245,10.2182617 33.1367188,10.2182617 C33.4742839,10.2182617 33.8395182,10.1532389 34.2324219,10.0231934 C34.6253255,9.89314779 34.985026,9.70361328 35.3115234,9.45458984 L36.4155273,11.0649414 C36.0004883,11.4135742 35.4913737,11.6958008 34.8881836,11.9116211 C34.2849935,12.1274414 33.6430664,12.2353516 32.9624023,12.2353516 C32.3481445,12.2353516 31.7698568,12.1302083 31.2275391,11.9199219 C30.6852214,11.7096354 30.2106934,11.4052734 29.8039551,11.0068359 C29.3972168,10.6083984 29.0762533,10.1241862 28.8410645,9.55419922 C28.6058757,8.98421224 28.4882812,8.34228516 28.4882812,7.62841797 C28.4882812,6.97542318 28.592041,6.36669922 28.7995605,5.80224609 C29.0070801,5.23779297 29.2976074,4.74804688 29.6711426,4.33300781 C30.0446777,3.91796875 30.4915365,3.59285482 31.0117188,3.35766602 C31.531901,3.12247721 32.1074219,3.00488281 32.7382812,3.00488281 C33.3248698,3.00488281 33.8699544,3.11140951 34.3735352,3.32446289 C34.8771159,3.53751628 35.3142904,3.8363444 35.6850586,4.22094727 C36.0558268,4.60555013 36.3463542,5.06624349 36.5566406,5.60302734 C36.7669271,6.1398112 36.8720703,6.73193359 36.8720703,7.37939453 L36.8720703,8.41699219 L30.8706055,8.41699219 Z M32.7299805,4.99707031 C32.2374674,4.99707031 31.8210449,5.16170247 31.4807129,5.4909668 C31.1403809,5.82023112 30.9425456,6.21728516 30.887207,6.68212891 L34.4731445,6.68212891 C34.4620768,6.2117513 34.2905273,5.8133138 33.9584961,5.48681641 C33.6264648,5.16031901 33.2169596,4.99707031 32.7299805,4.99707031 Z" id="Shape"></path>
                <path d="M38.9638672,9.23046875 C39.2903646,9.52376302 39.6805013,9.77555339 40.1342773,9.98583984 C40.5880534,10.1961263 41.0473633,10.3012695 41.512207,10.3012695 C41.8497721,10.3012695 42.1153971,10.2362467 42.309082,10.1062012 C42.5027669,9.9761556 42.5996094,9.80875651 42.5996094,9.60400391 C42.5996094,9.25537109 42.2260742,8.98421224 41.4790039,8.79052734 L40.831543,8.61621094 C40.5105794,8.53873698 40.186849,8.43221029 39.8603516,8.29663086 C39.5338542,8.16105143 39.2336426,7.98258464 38.9597168,7.76123047 C38.685791,7.5398763 38.4644368,7.27010091 38.2956543,6.9519043 C38.1268717,6.63370768 38.0424805,6.2421875 38.0424805,5.77734375 C38.0424805,5.40657552 38.1241048,5.05379232 38.2873535,4.71899414 C38.4506022,4.38419596 38.6830241,4.08951823 38.9846191,3.83496094 C39.2862142,3.58040365 39.652832,3.37841797 40.0844727,3.22900391 C40.5161133,3.07958984 40.9975586,3.00488281 41.5288086,3.00488281 C42.2869466,3.00488281 42.9634603,3.12386068 43.5583496,3.36181641 C44.1532389,3.59977214 44.6222331,3.86816406 44.965332,4.16699219 L43.7700195,5.69433594 C43.487793,5.48958333 43.1543783,5.31388346 42.7697754,5.16723633 C42.3851725,5.02058919 41.9991862,4.94726562 41.6118164,4.94726562 C41.2521159,4.94726562 40.9726562,5.01228841 40.7734375,5.14233398 C40.5742188,5.27237956 40.4746094,5.42871094 40.4746094,5.61132812 C40.4746094,5.80501302 40.5617676,5.9613444 40.736084,6.08032227 C40.9104004,6.19930013 41.1635742,6.3030599 41.4956055,6.39160156 L42.4584961,6.66552734 C43.3771159,6.92561849 44.0356445,7.27701823 44.434082,7.71972656 C44.8325195,8.1624349 45.0317383,8.72135417 45.0317383,9.39648438 C45.0317383,9.77278646 44.9542643,10.1311035 44.7993164,10.4714355 C44.6443685,10.8117676 44.4174805,11.1147461 44.1186523,11.3803711 C43.8198242,11.6459961 43.449056,11.8548991 43.0063477,12.0070801 C42.5636393,12.1592611 42.0600586,12.2353516 41.4956055,12.2353516 C41.0639648,12.2353516 40.65861,12.1966146 40.279541,12.1191406 C39.900472,12.0416667 39.5490723,11.93514 39.2253418,11.7995605 C38.9016113,11.6639811 38.6097005,11.5104167 38.3496094,11.3388672 C38.0895182,11.1673177 37.8681641,10.9957682 37.6855469,10.8242188 L38.9638672,9.23046875 Z" id="Path"></path>
            </g>
        </g>
    </g>
</svg>