<?xml version="1.0" encoding="UTF-8"?>
<svg width="34px" height="15px" viewBox="0 0 34 15" version="1.1" xmlns="http://www.w3.org/2000/svg" xmlns:xlink="http://www.w3.org/1999/xlink">
    <title>Blog</title>
    <g id="Page-1" stroke="none" stroke-width="1" fill="none" fill-rule="evenodd">
        <g id="Group" transform="translate(0.245117, 0.096680)" fill="#000000" fill-rule="nonzero">
            <g>
                <path d="M5.29589844,0 C5.79394531,0 6.25602214,0.0733235677 6.68212891,0.219970703 C7.10823568,0.366617839 7.47900391,0.575520833 7.79443359,0.846679688 C8.10986328,1.11783854 8.35611979,1.4457194 8.53320312,1.83032227 C8.71028646,2.21492513 8.79882812,2.64241536 8.79882812,3.11279297 C8.79882812,3.35628255 8.76424154,3.59700521 8.69506836,3.83496094 C8.62589518,4.07291667 8.52490234,4.2956543 8.39208984,4.50317383 C8.25927734,4.71069336 8.09879557,4.90022786 7.91064453,5.07177734 C7.72249349,5.24332682 7.5094401,5.3844401 7.27148438,5.49511719 C7.46516927,5.56152344 7.69067383,5.66113281 7.94799805,5.79394531 C8.20532227,5.92675781 8.45019531,6.109375 8.68261719,6.34179687 C8.91503906,6.57421875 9.11149089,6.8605957 9.27197266,7.20092773 C9.43245443,7.54125977 9.51269531,7.95214844 9.51269531,8.43359375 C9.51269531,9.03678385 9.39786784,9.55696615 9.16821289,9.99414062 C8.93855794,10.4313151 8.62866211,10.7910156 8.23852539,11.0732422 C7.84838867,11.3554688 7.3918457,11.5643717 6.86889648,11.6999512 C6.34594727,11.8355306 5.79394531,11.9033203 5.21289062,11.9033203 L0,11.9033203 L0,0 L5.29589844,0 Z M7.04736328,8.35058594 C7.04736328,8.0296224 6.98925781,7.76676432 6.87304688,7.56201172 C6.75683594,7.35725911 6.60327148,7.19401042 6.41235352,7.07226562 C6.22143555,6.95052083 6.00423177,6.86612956 5.76074219,6.8190918 C5.5172526,6.77205404 5.26822917,6.74853516 5.01367188,6.74853516 L2.40722656,6.74853516 L2.40722656,10.0024414 L5.01367188,10.0024414 C5.26822917,10.0024414 5.5172526,9.97753906 5.76074219,9.92773438 C6.00423177,9.87792969 6.22143555,9.78938802 6.41235352,9.66210938 C6.60327148,9.53483073 6.75683594,9.36604818 6.87304688,9.15576172 C6.98925781,8.94547526 7.04736328,8.67708333 7.04736328,8.35058594 Z M6.375,3.35351562 C6.375,2.89973958 6.23111979,2.54557292 5.94335938,2.29101562 C5.65559896,2.03645833 5.19075521,1.90917969 4.54882812,1.90917969 L2.40722656,1.90917969 L2.40722656,4.71484375 L4.54882812,4.71484375 C5.1796875,4.71484375 5.64176432,4.59448242 5.93505859,4.35375977 C6.22835286,4.11303711 6.375,3.7796224 6.375,3.35351562 Z" id="Shape"></path>
                <path d="M11.0317383,0 L13.3227539,0 L13.3227539,9.48779297 C13.3227539,9.67594401 13.376709,9.81982422 13.4846191,9.91943359 C13.5925293,10.019043 13.7654622,10.0688477 14.003418,10.0688477 C14.1140951,10.0688477 14.209554,10.0619303 14.2897949,10.0480957 C14.3700358,10.0342611 14.4737956,10.0135091 14.6010742,9.98583984 L14.7836914,11.9365234 C14.6287435,11.9586589 14.4627279,11.9807943 14.2856445,12.0029297 C14.1362305,12.0195312 13.9632975,12.0347493 13.7668457,12.048584 C13.5703939,12.0624186 13.3670247,12.0693359 13.1567383,12.0693359 C12.8302409,12.0693359 12.5369466,12.027832 12.2768555,11.9448242 C12.0167643,11.8618164 11.7940267,11.7386882 11.6086426,11.5754395 C11.4232585,11.4121908 11.2807617,11.2088216 11.1811523,10.965332 C11.081543,10.7218424 11.0317383,10.4396159 11.0317383,10.1186523 L11.0317383,0 Z" id="Path"></path>
                <path d="M19.9550781,2.83886719 C20.6136068,2.83886719 21.211263,2.95646159 21.7480469,3.19165039 C22.2848307,3.42683919 22.7441406,3.75195312 23.1259766,4.16699219 C23.5078125,4.58203125 23.8024902,5.07177734 24.0100098,5.63623047 C24.2175293,6.20068359 24.3212891,6.80940755 24.3212891,7.46240234 C24.3212891,8.12093099 24.2161458,8.73103841 24.0058594,9.29272461 C23.7955729,9.85441081 23.4995117,10.3400065 23.1176758,10.7495117 C22.7358398,11.1590169 22.2765299,11.4813639 21.7397461,11.7165527 C21.2029622,11.9517415 20.6080729,12.0693359 19.9550781,12.0693359 C19.2965495,12.0693359 18.6988932,11.9517415 18.1621094,11.7165527 C17.6253255,11.4813639 17.1660156,11.1590169 16.7841797,10.7495117 C16.4023438,10.3400065 16.1062826,9.85441081 15.8959961,9.29272461 C15.6857096,8.73103841 15.5805664,8.12093099 15.5805664,7.46240234 C15.5805664,6.80940755 15.6843262,6.20068359 15.8918457,5.63623047 C16.0993652,5.07177734 16.394043,4.58203125 16.7758789,4.16699219 C17.1577148,3.75195312 17.6184082,3.42683919 18.157959,3.19165039 C18.6975098,2.95646159 19.2965495,2.83886719 19.9550781,2.83886719 Z M19.9550781,9.94433594 C20.2815755,9.94433594 20.5707194,9.88346354 20.8225098,9.76171875 C21.0743001,9.63997396 21.2859701,9.47119141 21.4575195,9.25537109 C21.629069,9.03955078 21.7591146,8.7808431 21.8476562,8.47924805 C21.9361979,8.17765299 21.9804688,7.84700521 21.9804688,7.48730469 L21.9804688,7.42919922 C21.9804688,7.0694987 21.9361979,6.73885091 21.8476562,6.43725586 C21.7591146,6.13566081 21.629069,5.87556966 21.4575195,5.65698242 C21.2859701,5.43839518 21.0743001,5.26822917 20.8225098,5.14648438 C20.5707194,5.02473958 20.2815755,4.96386719 19.9550781,4.96386719 C19.6285807,4.96386719 19.3394368,5.02473958 19.0876465,5.14648438 C18.8358561,5.26822917 18.6241862,5.43839518 18.4526367,5.65698242 C18.2810872,5.87556966 18.1510417,6.13566081 18.0625,6.43725586 C17.9739583,6.73885091 17.9296875,7.0694987 17.9296875,7.42919922 L17.9296875,7.48730469 C17.9296875,7.84700521 17.9739583,8.17765299 18.0625,8.47924805 C18.1510417,8.7808431 18.2810872,9.03955078 18.4526367,9.25537109 C18.6241862,9.47119141 18.8358561,9.63997396 19.0876465,9.76171875 C19.3394368,9.88346354 19.6285807,9.94433594 19.9550781,9.94433594 Z" id="Shape"></path>
                <path d="M31.2441406,10.3261719 C31.039388,10.5751953 30.7530111,10.7730306 30.3850098,10.9196777 C30.0170085,11.0663249 29.6171875,11.1396484 29.1855469,11.1396484 C28.5878906,11.1396484 28.0566406,11.0345052 27.5917969,10.8242188 C27.1269531,10.6139323 26.7354329,10.3247884 26.4172363,9.95678711 C26.0990397,9.58878581 25.8555501,9.15299479 25.6867676,8.64941406 C25.517985,8.14583333 25.4335938,7.59244792 25.4335938,6.98925781 C25.4335938,6.40266927 25.517985,5.85343424 25.6867676,5.34155273 C25.8555501,4.82967122 26.0990397,4.38972982 26.4172363,4.02172852 C26.7354329,3.65372721 27.1269531,3.36458333 27.5917969,3.15429688 C28.0566406,2.94401042 28.5878906,2.83886719 29.1855469,2.83886719 C29.6171875,2.83886719 30.0170085,2.91357422 30.3850098,3.06298828 C30.7530111,3.21240234 31.039388,3.41162109 31.2441406,3.66064453 L31.2441406,3.01318359 L33.543457,3.01318359 L33.543457,11.8203125 C33.543457,12.3626302 33.4410807,12.8288574 33.2363281,13.2189941 C33.0315755,13.6091309 32.7507324,13.9287109 32.3937988,14.1777344 C32.0368652,14.4267578 31.6232096,14.6079915 31.152832,14.7214355 C30.6824544,14.8348796 30.1816406,14.8916016 29.6503906,14.8916016 C29.0029297,14.8916016 28.3277995,14.8155111 27.625,14.6633301 C26.9222005,14.5111491 26.3162435,14.3216146 25.8071289,14.0947266 L26.4545898,12.2436523 C26.6095378,12.3100586 26.8004557,12.3833822 27.0273438,12.463623 C27.2542318,12.5438639 27.4977214,12.6144206 27.7578125,12.675293 C28.0179036,12.7361654 28.290446,12.7873535 28.5754395,12.8288574 C28.8604329,12.8703613 29.1385091,12.8911133 29.409668,12.8911133 C29.6476237,12.8911133 29.8772786,12.8675944 30.0986328,12.8205566 C30.319987,12.7735189 30.5150553,12.6960449 30.6838379,12.5881348 C30.8526204,12.4802246 30.9881999,12.3391113 31.0905762,12.1647949 C31.1929525,11.9904785 31.2441406,11.7677409 31.2441406,11.496582 L31.2441406,10.3261719 Z M27.7910156,7.02246094 C27.7910156,7.31575521 27.8228353,7.59106445 27.8864746,7.84838867 C27.9501139,8.10571289 28.0524902,8.32430013 28.1936035,8.50415039 C28.3347168,8.68400065 28.5159505,8.82511393 28.7373047,8.92749023 C28.9586589,9.02986654 29.2270508,9.08105469 29.5424805,9.08105469 C30.167806,9.08105469 30.6132812,8.8832194 30.8789062,8.48754883 C31.1445312,8.09187826 31.2773438,7.60351562 31.2773438,7.02246094 L31.2773438,6.95605469 C31.2773438,6.66276042 31.2469076,6.38883464 31.1860352,6.13427734 C31.1251628,5.87972005 31.0255534,5.66113281 30.887207,5.47851562 C30.7488607,5.29589844 30.5703939,5.15340169 30.3518066,5.05102539 C30.1332194,4.94864909 29.863444,4.89746094 29.5424805,4.89746094 C28.9226888,4.89746094 28.4758301,5.09391276 28.2019043,5.48681641 C27.9279785,5.87972005 27.7910156,6.36946615 27.7910156,6.95605469 L27.7910156,7.02246094 Z" id="Shape"></path>
            </g>
        </g>
    </g>
</svg>