<?xml version="1.0" encoding="UTF-8"?>
<svg width="42px" height="20px" viewBox="0 0 42 20" version="1.1" xmlns="http://www.w3.org/2000/svg" xmlns:xlink="http://www.w3.org/1999/xlink">
    <title>blog-box</title>
    <g id="Page-1" stroke="none" stroke-width="1" fill="none" fill-rule="evenodd">
        <g id="Group">
            <rect id="Rectangle" fill="#EAEAEA" x="0" y="0" width="42" height="20"></rect>
            <path d="M9.54101562,3.09667969 C10.0390625,3.09667969 10.5011393,3.17000326 10.9272461,3.31665039 C11.3533529,3.46329753 11.7241211,3.67220052 12.0395508,3.94335938 C12.3549805,4.21451823 12.601237,4.54239909 12.7783203,4.92700195 C12.9554036,5.31160482 13.0439453,5.73909505 13.0439453,6.20947266 C13.0439453,6.45296224 13.0093587,6.6936849 12.9401855,6.93164062 C12.8710124,7.16959635 12.7700195,7.39233398 12.637207,7.59985352 C12.5043945,7.80737305 12.3439128,7.99690755 12.1557617,8.16845703 C11.9676107,8.34000651 11.7545573,8.48111979 11.5166016,8.59179688 C11.7102865,8.65820312 11.935791,8.7578125 12.1931152,8.890625 C12.4504395,9.0234375 12.6953125,9.20605469 12.9277344,9.43847656 C13.1601562,9.67089844 13.3566081,9.95727539 13.5170898,10.2976074 C13.6775716,10.6379395 13.7578125,11.0488281 13.7578125,11.5302734 C13.7578125,12.1334635 13.642985,12.6536458 13.4133301,13.0908203 C13.1836751,13.5279948 12.8737793,13.8876953 12.4836426,14.1699219 C12.0935059,14.4521484 11.6369629,14.6610514 11.1140137,14.7966309 C10.5910645,14.9322103 10.0390625,15 9.45800781,15 L4.24511719,15 L4.24511719,3.09667969 L9.54101562,3.09667969 Z M11.2924805,11.4472656 C11.2924805,11.1263021 11.234375,10.863444 11.1181641,10.6586914 C11.0019531,10.4539388 10.8483887,10.2906901 10.6574707,10.1689453 C10.4665527,10.0472005 10.249349,9.96280924 10.0058594,9.91577148 C9.76236979,9.86873372 9.51334635,9.84521484 9.25878906,9.84521484 L6.65234375,9.84521484 L6.65234375,13.0991211 L9.25878906,13.0991211 C9.51334635,13.0991211 9.76236979,13.0742188 10.0058594,13.0244141 C10.249349,12.9746094 10.4665527,12.8860677 10.6574707,12.7587891 C10.8483887,12.6315104 11.0019531,12.4627279 11.1181641,12.2524414 C11.234375,12.0421549 11.2924805,11.773763 11.2924805,11.4472656 Z M10.6201172,6.45019531 C10.6201172,5.99641927 10.476237,5.6422526 10.1884766,5.38769531 C9.90071615,5.13313802 9.4358724,5.00585938 8.79394531,5.00585938 L6.65234375,5.00585938 L6.65234375,7.81152344 L8.79394531,7.81152344 C9.42480469,7.81152344 9.88688151,7.69116211 10.1801758,7.45043945 C10.4734701,7.2097168 10.6201172,6.87630208 10.6201172,6.45019531 Z" id="Shape" fill="#000000" fill-rule="nonzero"></path>
            <path d="M15.2768555,3.09667969 L17.5678711,3.09667969 L17.5678711,12.5844727 C17.5678711,12.7726237 17.6218262,12.9165039 17.7297363,13.0161133 C17.8376465,13.1157227 18.0105794,13.1655273 18.2485352,13.1655273 C18.3592122,13.1655273 18.4546712,13.15861 18.5349121,13.1447754 C18.615153,13.1309408 18.7189128,13.1101888 18.8461914,13.0825195 L19.0288086,15.0332031 C18.8738607,15.0553385 18.7078451,15.077474 18.5307617,15.0996094 C18.3813477,15.1162109 18.2084147,15.131429 18.0119629,15.1452637 C17.8155111,15.1590983 17.6121419,15.1660156 17.4018555,15.1660156 C17.0753581,15.1660156 16.7820638,15.1245117 16.5219727,15.0415039 C16.2618815,14.9584961 16.0391439,14.8353678 15.8537598,14.6721191 C15.6683757,14.5088704 15.5258789,14.3055013 15.4262695,14.0620117 C15.3266602,13.8185221 15.2768555,13.5362956 15.2768555,13.215332 L15.2768555,3.09667969 Z" id="Path" fill="#000000" fill-rule="nonzero"></path>
            <path d="M24.2001953,5.93554688 C24.858724,5.93554688 25.4563802,6.05314128 25.9931641,6.28833008 C26.5299479,6.52351888 26.9892578,6.84863281 27.3710938,7.26367188 C27.7529297,7.67871094 28.0476074,8.16845703 28.255127,8.73291016 C28.4626465,9.29736328 28.5664062,9.90608724 28.5664062,10.559082 C28.5664062,11.2176107 28.461263,11.8277181 28.2509766,12.3894043 C28.0406901,12.9510905 27.7446289,13.4366862 27.362793,13.8461914 C26.980957,14.2556966 26.5216471,14.5780436 25.9848633,14.8132324 C25.4480794,15.0484212 24.8531901,15.1660156 24.2001953,15.1660156 C23.5416667,15.1660156 22.9440104,15.0484212 22.4072266,14.8132324 C21.8704427,14.5780436 21.4111328,14.2556966 21.0292969,13.8461914 C20.6474609,13.4366862 20.3513997,12.9510905 20.1411133,12.3894043 C19.9308268,11.8277181 19.8256836,11.2176107 19.8256836,10.559082 C19.8256836,9.90608724 19.9294434,9.29736328 20.1369629,8.73291016 C20.3444824,8.16845703 20.6391602,7.67871094 21.0209961,7.26367188 C21.402832,6.84863281 21.8635254,6.52351888 22.4030762,6.28833008 C22.942627,6.05314128 23.5416667,5.93554688 24.2001953,5.93554688 Z M24.2001953,13.0410156 C24.5266927,13.0410156 24.8158366,12.9801432 25.067627,12.8583984 C25.3194173,12.7366536 25.5310872,12.5678711 25.7026367,12.3520508 C25.8741862,12.1362305 26.0042318,11.8775228 26.0927734,11.5759277 C26.1813151,11.2743327 26.2255859,10.9436849 26.2255859,10.5839844 L26.2255859,10.5258789 C26.2255859,10.1661784 26.1813151,9.8355306 26.0927734,9.53393555 C26.0042318,9.23234049 25.8741862,8.97224935 25.7026367,8.75366211 C25.5310872,8.53507487 25.3194173,8.36490885 25.067627,8.24316406 C24.8158366,8.12141927 24.5266927,8.06054688 24.2001953,8.06054688 C23.8736979,8.06054688 23.584554,8.12141927 23.3327637,8.24316406 C23.0809733,8.36490885 22.8693034,8.53507487 22.6977539,8.75366211 C22.5262044,8.97224935 22.3961589,9.23234049 22.3076172,9.53393555 C22.2190755,9.8355306 22.1748047,10.1661784 22.1748047,10.5258789 L22.1748047,10.5839844 C22.1748047,10.9436849 22.2190755,11.2743327 22.3076172,11.5759277 C22.3961589,11.8775228 22.5262044,12.1362305 22.6977539,12.3520508 C22.8693034,12.5678711 23.0809733,12.7366536 23.3327637,12.8583984 C23.584554,12.9801432 23.8736979,13.0410156 24.2001953,13.0410156 Z" id="Shape" fill="#000000" fill-rule="nonzero"></path>
            <path d="M35.4892578,13.4228516 C35.2845052,13.671875 34.9981283,13.8697103 34.630127,14.0163574 C34.2621257,14.1630046 33.8623047,14.2363281 33.4306641,14.2363281 C32.8330078,14.2363281 32.3017578,14.1311849 31.8369141,13.9208984 C31.3720703,13.710612 30.9805501,13.4214681 30.6623535,13.0534668 C30.3441569,12.6854655 30.1006673,12.2496745 29.9318848,11.7460938 C29.7631022,11.242513 29.6787109,10.6891276 29.6787109,10.0859375 C29.6787109,9.49934896 29.7631022,8.95011393 29.9318848,8.43823242 C30.1006673,7.92635091 30.3441569,7.48640951 30.6623535,7.1184082 C30.9805501,6.7504069 31.3720703,6.46126302 31.8369141,6.25097656 C32.3017578,6.0406901 32.8330078,5.93554688 33.4306641,5.93554688 C33.8623047,5.93554688 34.2621257,6.01025391 34.630127,6.15966797 C34.9981283,6.30908203 35.2845052,6.50830078 35.4892578,6.75732422 L35.4892578,6.10986328 L37.7885742,6.10986328 L37.7885742,14.9169922 C37.7885742,15.4593099 37.6861979,15.9255371 37.4814453,16.3156738 C37.2766927,16.7058105 36.9958496,17.0253906 36.638916,17.2744141 C36.2819824,17.5234375 35.8683268,17.7046712 35.3979492,17.8181152 C34.9275716,17.9315592 34.4267578,17.9882812 33.8955078,17.9882812 C33.2480469,17.9882812 32.5729167,17.9121908 31.8701172,17.7600098 C31.1673177,17.6078288 30.5613607,17.4182943 30.0522461,17.1914062 L30.699707,15.340332 C30.8546549,15.4067383 31.0455729,15.4800618 31.2724609,15.5603027 C31.499349,15.6405436 31.7428385,15.7111003 32.0029297,15.7719727 C32.2630208,15.8328451 32.5355632,15.8840332 32.8205566,15.9255371 C33.1055501,15.967041 33.3836263,15.987793 33.6547852,15.987793 C33.8927409,15.987793 34.1223958,15.9642741 34.34375,15.9172363 C34.5651042,15.8701986 34.7601725,15.7927246 34.9289551,15.6848145 C35.0977376,15.5769043 35.2333171,15.435791 35.3356934,15.2614746 C35.4380697,15.0871582 35.4892578,14.8644206 35.4892578,14.5932617 L35.4892578,13.4228516 Z M32.0361328,10.1191406 C32.0361328,10.4124349 32.0679525,10.6877441 32.1315918,10.9450684 C32.1952311,11.2023926 32.2976074,11.4209798 32.4387207,11.6008301 C32.579834,11.7806803 32.7610677,11.9217936 32.9824219,12.0241699 C33.203776,12.1265462 33.472168,12.1777344 33.7875977,12.1777344 C34.4129232,12.1777344 34.8583984,11.9798991 35.1240234,11.5842285 C35.3896484,11.1885579 35.5224609,10.7001953 35.5224609,10.1191406 L35.5224609,10.0527344 C35.5224609,9.7594401 35.4920247,9.48551432 35.4311523,9.23095703 C35.3702799,8.97639974 35.2706706,8.7578125 35.1323242,8.57519531 C34.9939779,8.39257812 34.8155111,8.25008138 34.5969238,8.14770508 C34.3783366,8.04532878 34.1085612,7.99414062 33.7875977,7.99414062 C33.167806,7.99414062 32.7209473,8.19059245 32.4470215,8.58349609 C32.1730957,8.97639974 32.0361328,9.46614583 32.0361328,10.0527344 L32.0361328,10.1191406 Z" id="Shape" fill="#000000" fill-rule="nonzero"></path>
        </g>
    </g>
</svg>