<?xml version="1.0" encoding="UTF-8" standalone="no"?>
<!DOCTYPE svg PUBLIC "-//W3C//DTD SVG 1.1//EN" "http://www.w3.org/Graphics/SVG/1.1/DTD/svg11.dtd">
<svg version="1.1" xmlns="http://www.w3.org/2000/svg" xmlns:xl="http://www.w3.org/1999/xlink" xmlns:dc="http://purl.org/dc/elements/1.1/" viewBox="590.63615 3229.4433 40 40" width="40" height="40">
  <defs/>
  <metadata> Produced by OmniGraffle 7.25\n2025-09-11 21:27:47 +0000</metadata>
  <g id="Canvas_1" stroke-dasharray="none" stroke-opacity="1" stroke="none" fill="none" fill-opacity="1">
    <title>Canvas 1</title>
    <g id="Canvas_1_Layer_1">
      <title>Layer 1</title>
      <g id="Graphic_114">
        <title>Pause Circle Outline</title>
        <path d="M 604.63615 3257.4433 L 608.63615 3257.4433 L 608.63615 3241.4433 L 604.63615 3241.4433 L 604.63615 3257.4433 Z M 610.63615 3229.4433 C 599.59615 3229.4433 590.63615 3238.4033 590.63615 3249.4433 C 590.63615 3260.4833 599.59615 3269.4433 610.63615 3269.4433 C 621.67615 3269.4433 630.63615 3260.4833 630.63615 3249.4433 C 630.63615 3238.4033 621.67615 3229.4433 610.63615 3229.4433 Z M 610.63615 3265.4433 C 601.81615 3265.4433 594.63615 3258.2633 594.63615 3249.4433 C 594.63615 3240.6233 601.81615 3233.4433 610.63615 3233.4433 C 619.45615 3233.4433 626.63615 3240.6233 626.63615 3249.4433 C 626.63615 3258.2633 619.45615 3265.4433 610.63615 3265.4433 Z M 612.63615 3257.4433 L 616.63615 3257.4433 L 616.63615 3241.4433 L 612.63615 3241.4433 L 612.63615 3257.4433 Z" fill="#144388"/>
      </g>
    </g>
  </g>
</svg>
