<?xml version="1.0" encoding="UTF-8" standalone="no"?>
<!DOCTYPE svg PUBLIC "-//W3C//DTD SVG 1.1//EN" "http://www.w3.org/Graphics/SVG/1.1/DTD/svg11.dtd">
<svg version="1.1" xmlns="http://www.w3.org/2000/svg" xmlns:xl="http://www.w3.org/1999/xlink" xmlns:dc="http://purl.org/dc/elements/1.1/" viewBox="590.63615 3164.4433 40 40" width="40" height="40">
  <defs/>
  <metadata> Produced by OmniGraffle 7.25\n2025-09-11 21:29:01 +0000</metadata>
  <g id="Canvas_1" stroke-dasharray="none" stroke-opacity="1" stroke="none" fill="none" fill-opacity="1">
    <title>Canvas 1</title>
    <g id="Canvas_1_Layer_1">
      <title>Layer 1</title>
      <g id="Graphic_108">
        <title>Play Circle Outline</title>
        <path d="M 606.63615 3193.4433 L 618.63615 3184.4433 L 606.63615 3175.4433 L 606.63615 3193.4433 Z M 610.63615 3164.4433 C 599.59615 3164.4433 590.63615 3173.4033 590.63615 3184.4433 C 590.63615 3195.4833 599.59615 3204.4433 610.63615 3204.4433 C 621.67615 3204.4433 630.63615 3195.4833 630.63615 3184.4433 C 630.63615 3173.4033 621.67615 3164.4433 610.63615 3164.4433 Z M 610.63615 3200.4433 C 601.81615 3200.4433 594.63615 3193.2633 594.63615 3184.4433 C 594.63615 3175.6233 601.81615 3168.4433 610.63615 3168.4433 C 619.45615 3168.4433 626.63615 3175.6233 626.63615 3184.4433 C 626.63615 3193.2633 619.45615 3200.4433 610.63615 3200.4433 Z" fill="#144388"/>
      </g>
    </g>
  </g>
</svg>
